<?xml version="1.0" standalone="no"?><!DOCTYPE svg PUBLIC "-//W3C//DTD SVG 1.1//EN" "http://www.w3.org/Graphics/SVG/1.1/DTD/svg11.dtd"><svg height="1116" node-id="1" sillyvg="true" template-height="1116" template-width="1238" version="1.1" viewBox="0 0 1238 1116" width="1238" xmlns="http://www.w3.org/2000/svg" xmlns:xlink="http://www.w3.org/1999/xlink"><defs node-id="138"><linearGradient gradientUnits="objectBoundingBox" id="linearGradient-1" node-id="7" spreadMethod="pad" x1="0.5" x2="0.5" y1="0" y2="0.860707"><stop offset="0" stop-color="#d2defb"></stop><stop offset="1" stop-color="#f3f4f8"></stop></linearGradient><linearGradient gradientUnits="objectBoundingBox" id="linearGradient-2" node-id="10" spreadMethod="pad" x1="0.5" x2="0.5" y1="0" y2="0.43909627"><stop offset="0" stop-color="#e5ecf8"></stop><stop offset="1" stop-color="#f3f4f6"></stop></linearGradient><linearGradient gradientUnits="objectBoundingBox" id="linearGradient-3" node-id="13" spreadMethod="pad" x1="0.5" x2="0.5" y1="0" y2="0.860707"><stop offset="0" stop-color="#d8e3fb"></stop><stop offset="1" stop-color="#f3f4f8"></stop></linearGradient><linearGradient gradientUnits="objectBoundingBox" id="linearGradient-4" node-id="16" spreadMethod="pad" x1="0.5" x2="0.5" y1="0" y2="0.43909627"><stop offset="0" stop-color="#e5ecf8"></stop><stop offset="1" stop-color="#f3f4f6"></stop></linearGradient><linearGradient gradientUnits="objectBoundingBox" id="linearGradient-5" node-id="19" spreadMethod="pad" x1="0.5" x2="0.5" y1="0" y2="1"><stop offset="0" stop-color="#d4e0fc"></stop><stop offset="1" stop-color="#e0e8fe"></stop></linearGradient><linearGradient gradientUnits="objectBoundingBox" id="linearGradient-6" node-id="22" spreadMethod="pad" x1="0.5" x2="0.5" y1="0" y2="1"><stop offset="0" stop-color="#d4e0fc"></stop><stop offset="1" stop-color="#e0e8fe"></stop></linearGradient><linearGradient gradientUnits="objectBoundingBox" id="linearGradient-7" node-id="25" spreadMethod="pad" x1="0.5" x2="0.5" y1="0" y2="0.860707"><stop offset="0" stop-color="#d2defb"></stop><stop offset="1" stop-color="#f3f4f8"></stop></linearGradient><linearGradient gradientUnits="objectBoundingBox" id="linearGradient-8" node-id="28" spreadMethod="pad" x1="0.5" x2="0.5" y1="0" y2="0.43909627"><stop offset="0" stop-color="#e5ecf8"></stop><stop offset="1" stop-color="#f3f4f6"></stop></linearGradient><linearGradient gradientUnits="objectBoundingBox" id="linearGradient-9" node-id="31" spreadMethod="pad" x1="0.5" x2="0.5" y1="0" y2="0.8802725"><stop offset="0" stop-color="#d0ddfc"></stop><stop offset="1" stop-color="#f3f4f8"></stop></linearGradient><linearGradient gradientUnits="objectBoundingBox" id="linearGradient-10" node-id="34" spreadMethod="pad" x1="0.5" x2="0.5" y1="0" y2="1"><stop offset="0" stop-color="#e8edf8"></stop><stop offset="1" stop-color="#f4f5f6"></stop></linearGradient><linearGradient gradientUnits="objectBoundingBox" id="linearGradient-11" node-id="37" spreadMethod="pad" x1="0.5" x2="0.5" y1="0" y2="0.8802725"><stop offset="0" stop-color="#d0ddfc"></stop><stop offset="1" stop-color="#f3f4f8"></stop></linearGradient><linearGradient gradientUnits="objectBoundingBox" id="linearGradient-12" node-id="40" spreadMethod="pad" x1="0.5" x2="0.5" y1="0" y2="1"><stop offset="0" stop-color="#e8edf8"></stop><stop offset="1" stop-color="#f4f5f6"></stop></linearGradient><linearGradient gradientUnits="objectBoundingBox" id="linearGradient-13" node-id="43" spreadMethod="pad" x1="0.5" x2="0.5" y1="0" y2="1"><stop offset="0" stop-color="#d1dffc"></stop><stop offset="1" stop-color="#eaeff9"></stop></linearGradient><linearGradient gradientUnits="objectBoundingBox" id="linearGradient-14" node-id="46" spreadMethod="pad" x1="0.5" x2="0.5" y1="0" y2="1"><stop offset="0" stop-color="#e6edf8"></stop><stop offset="1" stop-color="#f1f2f6"></stop></linearGradient><linearGradient gradientUnits="objectBoundingBox" id="linearGradient-15" node-id="49" spreadMethod="pad" x1="0.5150312" x2="0.5" y1="0.45485553" y2="0.5489954"><stop offset="0" stop-color="#dbe7fc"></stop><stop offset="1" stop-color="#f3f5f6"></stop></linearGradient><filter height="1.48" id="filter-16" node-id="52" width="1.071" x="-0.036" y="-0.24"><feGaussianBlur color-interpolation-filters="linearRGB" in="SourceGraphic" result="result1" stdDeviation="4 4"></feGaussianBlur></filter><filter height="1.692" id="filter-17" node-id="54" width="1.09" x="-0.045" y="-0.346"><feGaussianBlur color-interpolation-filters="linearRGB" in="SourceGraphic" result="result1" stdDeviation="3 3"></feGaussianBlur></filter></defs><g node-id="237"><g node-id="238"><g node-id="239"><g node-id="240"><path d="M 0.00 0.00 L 1238.00 0.00 L 1238.00 1116.00 L 0.00 1116.00 Z" fill="#f5f5f5" fill-opacity="0.8465867" fill-rule="evenodd" group-id="1,2,3,4" id="矩形备份-27" node-id="60" stroke="none" target-height="1116" target-width="1238" target-x="0" target-y="0"></path></g><text align="center" editable="true" ellipsis="false" fill="#5480e5" flags="1" font-family="'Noto Sans CJK SC'" font-size="48" font-stretch="normal" font-style="normal" font-weight="500" group-id="1,2,3" height="71.04" id="抱歉，您无权访问该页面～" letter-spacing="0" node-id="61" stroke="none" target-x="326" target-y="891.32" vertical-align="center" width="576" x="326" xml:space="preserve" y="947">抱歉，您无权访问该页面～</text><path d="M 230.00 392.20 L 271.19 384.00 L 271.19 578.20 L 230.00 584.20 Z" fill="url(#linearGradient-1)" fill-rule="evenodd" group-id="1,2,3,5" id="矩形" node-id="65" stroke="none" target-height="200.19989" target-width="41.187378" target-x="230" target-y="384"></path><path d="M 269.19 384.20 L 345.58 391.93 L 345.58 544.12 L 269.19 578.20 Z" fill="url(#linearGradient-2)" fill-rule="evenodd" group-id="1,2,3,5" id="矩形备份-12" node-id="66" stroke="none" target-height="193.99997" target-width="76.39114" target-x="269.18738" target-y="384.19992"></path><path d="M 668.00 328.22 L 728.00 304.00 L 728.00 521.01 L 668.00 526.20 Z" fill="url(#linearGradient-3)" fill-rule="evenodd" group-id="1,2,3,6" id="矩形" node-id="68" stroke="none" target-height="222.19989" target-width="60" target-x="668" target-y="304"></path><path d="M 728.00 304.00 L 782.59 315.82 L 784.00 492.90 L 728.00 521.95 Z" fill="url(#linearGradient-4)" fill-rule="evenodd" group-id="1,2,3,6" id="矩形备份-12" node-id="69" stroke="none" target-height="217.94556" target-width="56" target-x="728" target-y="304"></path><path d="M 539.60 240.00 L 604.41 240.00 L 604.41 269.21 L 604.41 295.58 L 610.58 336.38 L 648.00 462.32 L 638.68 467.10 L 629.60 471.23 L 620.74 474.73 L 612.09 477.64 L 603.64 479.97 L 595.36 481.75 L 587.24 483.01 L 579.26 483.75 L 571.41 484.00 L 563.46 483.75 L 555.50 482.98 L 547.51 481.70 L 539.47 479.89 L 531.36 477.54 L 523.17 474.63 L 514.89 471.14 L 506.51 467.05 L 498.00 462.32 L 531.88 336.38 L 539.60 294.86 L 539.60 268.45 L 539.60 240.00 Z" fill="url(#linearGradient-5)" fill-opacity="0.30594307" fill-rule="evenodd" group-id="1,2,3,7,16" id="矩形" node-id="72" stroke="none" target-height="243.99998" target-width="150" target-x="498" target-y="240.00002"></path><path d="M 606.00 240.00 L 605.73 241.27 L 604.92 242.55 L 603.41 243.89 L 601.64 244.97 L 599.32 246.03 L 596.33 247.07 L 591.62 248.26 L 585.85 249.21 L 579.76 249.79 L 573.00 250.00 L 566.24 249.79 L 560.15 249.21 L 554.38 248.26 L 549.67 247.07 L 546.68 246.03 L 544.36 244.97 L 542.59 243.89 L 541.08 242.55 L 540.27 241.27 L 540.00 240.00 L 540.27 238.73 L 541.08 237.45 L 542.59 236.11 L 544.36 235.03 L 546.68 233.97 L 549.67 232.93 L 554.38 231.74 L 560.15 230.79 L 566.24 230.21 L 573.00 230.00 L 579.76 230.21 L 585.85 230.79 L 591.62 231.74 L 596.33 232.93 L 599.32 233.97 L 601.64 235.03 L 603.41 236.11 L 604.92 237.45 L 605.73 238.73 L 606.00 240.00 Z" fill="#e1e7ff" fill-opacity="0.30594307" fill-rule="evenodd" group-id="1,2,3,7,16" id="椭圆形" node-id="73" stroke="none" target-height="20" target-width="66" target-x="540" target-y="230.00002"></path><path d="M 540.00 278.00 L 540.26 279.28 L 541.05 280.56 L 542.51 281.89 L 544.23 282.97 L 546.48 284.03 L 549.37 285.07 L 553.95 286.26 L 559.54 287.21 L 565.44 287.79 L 572.00 288.00 L 578.56 287.79 L 584.46 287.21 L 590.05 286.26 L 594.63 285.07 L 597.52 284.03 L 599.77 282.97 L 601.49 281.89 L 602.95 280.56 L 603.74 279.28 L 604.00 278.00" fill="none" group-id="1,2,3,7,16,23" id="路径" node-id="74" stroke="#aeaceb" stroke-linecap="butt" stroke-opacity="0.12896302" stroke-width="2" target-height="10" target-width="64" target-x="540" target-y="278"></path><path d="M 540.00 302.00 L 540.26 303.28 L 541.05 304.56 L 542.51 305.89 L 544.23 306.97 L 546.48 308.03 L 549.37 309.07 L 553.95 310.26 L 559.54 311.21 L 565.44 311.79 L 572.00 312.00 L 578.56 311.79 L 584.46 311.21 L 590.05 310.26 L 594.63 309.07 L 597.52 308.03 L 599.77 306.97 L 601.49 305.89 L 602.95 304.56 L 603.74 303.28 L 604.00 302.00" fill="none" group-id="1,2,3,7,16,24" id="路径" node-id="75" stroke="#aeaceb" stroke-linecap="butt" stroke-opacity="0.12896302" stroke-width="2" target-height="10" target-width="64" target-x="540" target-y="302"></path><path d="M 534.00 326.00 L 534.29 327.25 L 535.19 328.53 L 536.91 329.89 L 538.88 330.96 L 541.48 332.03 L 544.84 333.07 L 550.12 334.26 L 556.60 335.21 L 563.41 335.79 L 571.00 336.00 L 578.59 335.79 L 585.40 335.21 L 591.88 334.26 L 597.16 333.07 L 600.52 332.03 L 603.12 330.96 L 605.09 329.89 L 606.81 328.53 L 607.71 327.25 L 608.00 326.00" fill="none" group-id="1,2,3,7,16,25" id="路径" node-id="76" stroke="#aeaceb" stroke-linecap="butt" stroke-opacity="0.12896302" stroke-width="2" target-height="10" target-width="74" target-x="534" target-y="326"></path><path d="M 578.46 240.00 L 580.30 239.76 L 581.60 239.16 L 582.51 238.24 L 583.15 237.03 L 583.62 235.50 L 583.89 233.56 L 584.10 226.90 L 584.24 223.16 L 584.65 219.18 L 585.15 216.55 L 585.94 213.94 L 587.04 211.34 L 588.45 208.91 L 590.34 206.56 L 592.77 204.28 L 595.50 202.37 L 598.98 200.58 L 603.36 198.95 L 607.15 198.08 L 610.79 197.72 L 614.32 197.85 L 619.54 198.70 L 624.47 200.13 L 629.22 201.91 L 633.53 203.71 L 637.70 205.40 L 641.24 206.55 L 643.56 207.00 L 645.56 206.98 L 647.30 206.57 L 648.81 205.70 L 650.19 204.15 L 651.45 201.72 L 654.63 194.25 L 657.76 187.98 L 660.83 182.76 L 664.27 177.75 L 667.55 173.63 L 670.67 170.30 L 674.06 167.20 L 677.18 164.72 L 680.05 162.79 L 684.44 160.32 L 688.02 158.68 L 693.64 156.41 L 694.97 155.71 L 695.69 155.06 L 695.98 154.43 L 695.93 153.74 L 695.41 152.72 L 694.10 151.19 L 692.48 149.92 L 689.98 148.60 L 686.31 147.23 L 680.42 145.67 L 672.71 144.25 L 664.47 143.21 L 655.04 142.45 L 645.31 142.06 L 635.04 142.04 L 624.70 142.42 L 614.45 143.22 L 604.37 144.49 L 595.01 146.21 L 588.90 147.68 L 583.40 149.35 L 578.46 151.19 L 574.54 153.12 L 571.04 155.34 L 567.92 157.87 L 565.07 160.70 L 562.57 163.66 L 560.39 166.76 L 557.60 171.64 L 555.48 176.40 L 553.85 181.17 L 552.81 185.31 L 552.17 189.23 L 552.00 192.00 L 552.17 196.56 L 552.64 201.12 L 553.43 205.70 L 555.13 212.41 L 557.35 218.69 L 559.16 222.73 L 561.12 226.36 L 563.21 229.63 L 565.58 232.70 L 567.98 235.20 L 570.43 237.18 L 573.12 238.76 L 575.78 239.67 L 578.46 240.00 Z" fill="#e0e8ff" fill-opacity="0.30594307" fill-rule="evenodd" group-id="1,2,3,7,17" id="椭圆形" node-id="78" stroke="none" target-height="97.9603" target-width="143.98267" target-x="552" target-y="142.0397"></path><path d="M 578.16 240.00 L 579.99 239.78 L 581.28 239.26 L 582.16 238.46 L 582.80 237.40 L 583.26 236.06 L 583.53 234.38 L 583.73 228.57 L 583.87 225.30 L 584.27 221.83 L 585.12 218.40 L 586.63 214.98 L 588.01 212.88 L 589.88 210.83 L 592.30 208.82 L 594.98 207.16 L 598.42 205.60 L 602.77 204.16 L 606.51 203.38 L 610.14 203.01 L 613.68 203.02 L 618.94 203.57 L 623.91 204.56 L 633.13 207.11 L 637.38 208.27 L 641.01 209.01 L 643.37 209.22 L 645.42 209.06 L 647.20 208.58 L 648.77 207.70 L 650.16 206.27 L 651.38 204.16 L 655.05 196.57 L 658.74 190.01 L 662.45 184.37 L 666.52 178.95 L 670.35 174.38 L 673.96 170.58 L 679.51 165.40 L 683.98 161.72 L 690.53 156.72 L 691.77 155.52 L 691.98 154.89 L 691.65 154.50 L 690.11 154.15 L 685.39 154.00 L 684.35 154.22 L 682.99 154.90 L 681.20 156.24 L 678.63 158.64 L 675.44 162.00 L 668.51 169.83 L 660.79 178.27 L 656.71 182.31 L 652.67 185.87 L 649.85 188.04 L 647.15 189.79 L 644.55 191.18 L 643.09 191.52 L 641.44 191.39 L 639.48 190.70 L 636.58 189.12 L 633.23 186.85 L 626.33 181.90 L 622.74 179.70 L 619.32 178.17 L 616.99 177.57 L 614.81 177.50 L 612.71 177.94 L 607.83 179.37 L 600.59 181.57 L 596.54 183.08 L 592.32 184.97 L 588.23 187.25 L 584.39 189.99 L 582.05 192.10 L 579.98 194.45 L 578.16 197.07 L 576.97 198.59 L 575.62 199.66 L 574.08 200.34 L 571.51 200.81 L 568.64 200.71 L 565.71 200.19 L 562.77 199.41 L 557.41 197.71 L 555.08 197.07 L 553.51 196.86 L 552.65 196.98 L 552.19 197.38 L 552.00 198.10 L 552.17 202.07 L 552.64 206.06 L 553.42 210.06 L 555.09 215.90 L 557.29 221.40 L 559.07 224.91 L 561.00 228.08 L 563.08 230.95 L 565.40 233.61 L 567.78 235.79 L 570.22 237.54 L 572.86 238.91 L 575.49 239.71 L 578.16 240.00 Z" fill="#d7ddf3" fill-opacity="0.30594307" fill-rule="evenodd" group-id="1,2,3,7,17" id="椭圆形备份-7" node-id="79" stroke="none" target-height="86" target-width="139.98083" target-x="552" target-y="154"></path><path d="M 832.62 370.30 L 874.10 370.30 L 874.10 388.70 L 874.10 405.31 L 878.05 431.01 L 902.00 510.34 L 894.37 514.14 L 886.98 517.26 L 879.81 519.75 L 872.85 521.64 L 866.08 522.96 L 859.46 523.74 L 852.98 524.00 L 846.44 523.73 L 839.87 522.93 L 833.27 521.59 L 826.59 519.69 L 819.84 517.20 L 812.98 514.09 L 806.00 510.34 L 827.69 431.01 L 832.62 404.86 L 832.62 388.22 L 832.62 370.30 Z" fill="url(#linearGradient-6)" fill-opacity="0.30594307" fill-rule="evenodd" group-id="1,2,3,8,18" id="矩形" node-id="82" stroke="none" target-height="153.7008" target-width="96" target-x="806" target-y="370.29858"></path><path d="M 875.12 370.30 L 874.83 371.33 L 873.96 372.37 L 872.24 373.48 L 869.15 374.69 L 864.66 375.74 L 859.75 376.36 L 854.00 376.60 L 848.25 376.36 L 843.34 375.74 L 838.85 374.69 L 835.76 373.48 L 834.04 372.37 L 833.17 371.33 L 832.88 370.30 L 833.17 369.27 L 834.04 368.23 L 835.76 367.12 L 838.85 365.91 L 843.34 364.86 L 848.25 364.24 L 854.00 364.00 L 859.75 364.24 L 864.66 364.86 L 869.15 365.91 L 872.24 367.12 L 873.96 368.23 L 874.83 369.27 L 875.12 370.30 Z" fill="#e1e7ff" fill-opacity="0.30594307" fill-rule="evenodd" group-id="1,2,3,8,18" id="椭圆形" node-id="83" stroke="none" target-height="12.59845" target-width="42.23999" target-x="832.88" target-y="363.99936"></path><path d="M 832.88 394.24 L 833.16 395.27 L 834.01 396.31 L 835.68 397.41 L 838.67 398.63 L 843.02 399.67 L 847.78 400.30 L 853.36 400.53 L 858.94 400.30 L 863.70 399.67 L 868.05 398.63 L 871.04 397.41 L 872.71 396.31 L 873.56 395.27 L 873.84 394.24" fill="none" group-id="1,2,3,8,18,26" id="路径" node-id="84" stroke="#aeaceb" stroke-linecap="butt" stroke-opacity="0.12896302" stroke-width="2" target-height="6.2991943" target-width="40.95996" target-x="832.88" target-y="394.2356"></path><path d="M 832.88 409.35 L 833.16 410.39 L 834.01 411.43 L 835.68 412.53 L 838.67 413.74 L 843.02 414.79 L 847.78 415.42 L 853.36 415.65 L 858.94 415.42 L 863.70 414.79 L 868.05 413.74 L 871.04 412.53 L 872.71 411.43 L 873.56 410.39 L 873.84 409.35" fill="none" group-id="1,2,3,8,18,27" id="路径" node-id="85" stroke="#aeaceb" stroke-linecap="butt" stroke-opacity="0.12896302" stroke-width="2" target-height="6.299225" target-width="40.95996" target-x="832.88" target-y="409.3537"></path><path d="M 829.04 424.47 L 829.35 425.48 L 830.32 426.52 L 832.27 427.65 L 835.73 428.86 L 840.77 429.91 L 846.27 430.53 L 852.72 430.77 L 859.17 430.53 L 864.67 429.91 L 869.71 428.86 L 873.17 427.65 L 875.12 426.52 L 876.09 425.48 L 876.40 424.47" fill="none" group-id="1,2,3,8,18,28" id="路径" node-id="86" stroke="#aeaceb" stroke-linecap="butt" stroke-opacity="0.12896302" stroke-width="2" target-height="6.299225" target-width="47.360046" target-x="829.04" target-y="424.4718"></path><path d="M 856.91 370.00 L 858.24 369.79 L 859.14 369.29 L 859.74 368.50 L 860.24 366.91 L 860.46 364.63 L 860.60 359.32 L 860.92 356.43 L 861.69 353.49 L 862.49 351.64 L 863.66 349.84 L 865.25 348.09 L 867.10 346.62 L 869.57 345.26 L 872.81 344.03 L 875.72 343.42 L 878.49 343.25 L 881.16 343.49 L 885.08 344.39 L 888.71 345.66 L 895.16 348.26 L 897.13 348.88 L 898.79 349.12 L 900.20 349.06 L 901.45 348.59 L 902.55 347.56 L 903.54 345.78 L 905.94 340.29 L 908.28 335.81 L 910.57 332.22 L 913.17 328.80 L 915.60 326.11 L 917.88 324.02 L 921.48 321.36 L 924.51 319.65 L 929.50 317.52 L 931.23 316.74 L 931.91 316.10 L 932.00 315.63 L 931.72 314.93 L 930.79 313.81 L 929.56 312.89 L 927.58 311.93 L 924.59 310.95 L 919.81 309.87 L 913.59 308.95 L 906.98 308.36 L 899.56 308.04 L 891.98 308.05 L 884.26 308.40 L 876.61 309.14 L 869.45 310.26 L 864.77 311.28 L 860.60 312.47 L 856.91 313.81 L 853.80 315.39 L 851.11 317.23 L 848.80 319.35 L 846.74 321.74 L 845.01 324.19 L 843.60 326.72 L 841.90 330.61 L 840.82 334.09 L 840.17 337.39 L 840.00 339.63 L 840.17 343.25 L 840.64 346.84 L 841.41 350.43 L 842.45 353.95 L 843.71 357.20 L 845.16 360.20 L 846.88 363.04 L 848.68 365.38 L 850.56 367.27 L 852.69 368.80 L 854.78 369.68 L 856.91 370.00 Z" fill="#e0e8ff" fill-opacity="0.30594307" fill-rule="evenodd" group-id="1,2,3,8,19" id="椭圆形" node-id="88" stroke="none" target-height="61.96353" target-width="92.0011" target-x="840" target-y="308.03647"></path><path d="M 856.71 370.00 L 858.05 369.81 L 858.94 369.37 L 859.51 368.69 L 860.01 367.30 L 860.22 365.31 L 860.36 360.68 L 860.68 358.16 L 861.44 355.59 L 862.22 353.98 L 863.38 352.42 L 864.96 350.87 L 866.77 349.61 L 869.21 348.42 L 872.44 347.33 L 875.31 346.77 L 878.07 346.57 L 880.76 346.70 L 884.72 347.31 L 888.39 348.21 L 894.97 350.03 L 897.86 350.50 L 900.13 350.34 L 901.43 349.84 L 902.54 348.87 L 903.50 347.33 L 906.35 341.59 L 909.21 336.77 L 912.05 332.78 L 915.21 328.98 L 918.07 325.92 L 920.67 323.50 L 924.55 320.30 L 927.17 318.33 L 928.82 317.05 L 929.37 316.40 L 929.41 316.08 L 929.13 315.87 L 928.03 315.67 L 925.22 315.59 L 924.42 315.78 L 923.35 316.39 L 921.88 317.59 L 919.77 319.69 L 917.17 322.53 L 911.52 328.82 L 908.46 332.00 L 905.36 334.88 L 902.14 337.38 L 899.13 339.11 L 898.20 339.33 L 897.14 339.25 L 895.89 338.81 L 894.03 337.81 L 891.90 336.37 L 887.49 333.24 L 885.19 331.85 L 883.01 330.88 L 881.52 330.50 L 880.13 330.46 L 878.79 330.74 L 874.62 331.94 L 871.76 332.80 L 868.43 334.00 L 865.11 335.51 L 861.89 337.46 L 859.92 339.01 L 858.20 340.80 L 856.71 342.84 L 855.78 343.95 L 854.71 344.68 L 853.46 345.08 L 851.40 345.21 L 849.13 344.90 L 844.75 343.66 L 841.36 342.73 L 840.56 342.74 L 840.16 342.99 L 840.00 343.49 L 840.17 346.64 L 840.63 349.78 L 841.39 352.92 L 843.01 357.42 L 845.10 361.44 L 846.79 363.91 L 848.57 365.95 L 850.44 367.62 L 852.52 368.94 L 854.60 369.72 L 856.71 370.00 Z" fill="#d7ddf3" fill-opacity="0.30594307" fill-rule="evenodd" group-id="1,2,3,8,19" id="椭圆形备份-7" node-id="89" stroke="none" target-height="54.408173" target-width="89.41461" target-x="840" target-y="315.59183"></path><path d="M 902.00 430.19 L 938.00 422.00 L 938.00 616.01 L 902.00 622.00 Z" fill="url(#linearGradient-7)" fill-rule="evenodd" group-id="1,2,3,9" id="矩形" node-id="91" stroke="none" target-height="200" target-width="36" target-x="902" target-y="422"></path><path d="M 938.00 422.00 L 1006.00 429.73 L 1006.00 581.92 L 938.00 616.00 Z" fill="url(#linearGradient-8)" fill-rule="evenodd" group-id="1,2,3,9" id="矩形备份-12" node-id="92" stroke="none" target-height="194" target-width="68" target-x="938" target-y="422"></path><path d="M 330.00 253.67 L 368.71 244.74 L 368.71 534.11 L 331.13 535.81 Z" fill="url(#linearGradient-9)" fill-rule="evenodd" group-id="1,2,3,10" id="矩形" node-id="94" stroke="none" target-height="291.06702" target-width="38.711945" target-x="330" target-y="244.73949"></path><path d="M 369.13 244.00 L 396.10 256.25 L 396.10 529.78 L 368.71 534.11 Z" fill="url(#linearGradient-10)" fill-rule="evenodd" group-id="1,2,3,10" id="矩形备份-11" node-id="95" stroke="none" target-height="290.10864" target-width="27.390717" target-x="368.71194" target-y="244"></path><path d="M 398.10 366.08 L 417.45 366.08 L 422.71 654.11 L 401.13 649.57 Z" fill="url(#linearGradient-11)" fill-opacity="0.44419643" fill-rule="evenodd" group-id="1,2,3,11" id="矩形" node-id="97" stroke="none" target-height="288.0243" target-width="24.609283" target-x="398.10266" target-y="366.08435"></path><path d="M 418.42 366.00 L 500.35 374.09 L 502.00 586.00 L 418.42 656.00 Z" fill="url(#linearGradient-12)" fill-opacity="0.44419643" fill-rule="evenodd" group-id="1,2,3,11" id="矩形备份-11" node-id="98" stroke="none" target-height="290" target-width="83.58307" target-x="418.41693" target-y="366"></path><path d="M 476.00 443.48 L 526.00 434.00 L 526.00 532.26 L 476.00 532.26 Z" fill="url(#linearGradient-13)" fill-rule="evenodd" group-id="1,2,3,12" id="矩形" node-id="100" stroke="none" target-height="98.26312" target-width="50" target-x="476" target-y="434"></path><path d="M 526.01 434.00 L 591.44 435.74 L 591.44 521.97 L 526.00 532.26 Z" fill="url(#linearGradient-14)" fill-rule="evenodd" group-id="1,2,3,12" id="矩形备份-13" node-id="101" stroke="none" target-height="98.26312" target-width="65.44159" target-x="526" target-y="434"></path><path d="M 1090.00 656.00 L 1089.74 661.62 L 1088.99 667.21 L 1087.75 672.79 L 1086.00 678.40 L 1083.71 684.03 L 1080.87 689.71 L 1077.07 696.02 L 1072.56 702.38 L 1067.27 708.79 L 1061.16 715.27 L 1054.15 721.82 L 1047.12 727.70 L 1039.33 733.61 L 1030.73 739.53 L 1021.26 745.47 L 1010.87 751.43 L 1000.73 756.76 L 989.82 762.05 L 978.10 767.30 L 965.52 772.49 L 952.05 777.62 L 938.81 782.27 L 924.98 786.76 L 910.55 791.09 L 895.48 795.25 L 875.42 800.28 L 854.48 804.96 L 832.63 809.29 L 810.71 813.11 L 788.09 816.53 L 764.76 819.56 L 741.38 822.09 L 717.51 824.20 L 693.13 825.86 L 668.72 827.04 L 644.01 827.76 L 619.00 828.00 L 593.99 827.76 L 569.28 827.04 L 544.87 825.86 L 520.49 824.20 L 496.62 822.09 L 473.24 819.56 L 449.91 816.53 L 427.29 813.11 L 405.37 809.29 L 383.52 804.96 L 362.58 800.28 L 342.52 795.25 L 327.45 791.09 L 313.02 786.76 L 299.19 782.27 L 285.95 777.62 L 272.48 772.49 L 259.90 767.30 L 248.18 762.05 L 237.27 756.76 L 227.13 751.43 L 216.74 745.47 L 207.27 739.53 L 198.67 733.61 L 190.88 727.70 L 183.85 721.82 L 176.84 715.27 L 170.73 708.79 L 165.44 702.38 L 160.93 696.02 L 157.13 689.71 L 154.29 684.03 L 152.00 678.40 L 150.25 672.79 L 149.01 667.21 L 148.26 661.62 L 148.00 656.00 L 148.26 650.38 L 149.01 644.79 L 150.25 639.21 L 152.00 633.60 L 154.29 627.97 L 157.13 622.29 L 160.93 615.98 L 165.44 609.62 L 170.73 603.21 L 176.84 596.73 L 183.85 590.18 L 190.88 584.30 L 198.67 578.39 L 207.27 572.47 L 216.74 566.53 L 227.13 560.57 L 237.27 555.24 L 248.18 549.95 L 259.90 544.70 L 272.48 539.51 L 285.95 534.38 L 299.19 529.73 L 313.02 525.24 L 327.45 520.91 L 342.52 516.75 L 362.58 511.72 L 383.52 507.04 L 405.37 502.71 L 427.29 498.89 L 449.91 495.47 L 473.24 492.44 L 496.62 489.91 L 520.49 487.80 L 544.87 486.14 L 569.28 484.96 L 593.99 484.24 L 619.00 484.00 L 644.01 484.24 L 668.72 484.96 L 693.13 486.14 L 717.51 487.80 L 741.38 489.91 L 764.76 492.44 L 788.09 495.47 L 810.71 498.89 L 832.63 502.71 L 854.48 507.04 L 875.42 511.72 L 895.48 516.75 L 910.55 520.91 L 924.98 525.24 L 938.81 529.73 L 952.05 534.38 L 965.52 539.51 L 978.10 544.70 L 989.82 549.95 L 1000.73 555.24 L 1010.87 560.57 L 1021.26 566.53 L 1030.73 572.47 L 1039.33 578.39 L 1047.12 584.30 L 1054.15 590.18 L 1061.16 596.73 L 1067.27 603.21 L 1072.56 609.62 L 1077.07 615.98 L 1080.87 622.29 L 1083.71 627.97 L 1086.00 633.60 L 1087.75 639.21 L 1088.99 644.79 L 1089.74 650.38 L 1090.00 656.00 Z" fill="url(#linearGradient-15)" fill-rule="evenodd" group-id="1,2,3" id="椭圆形备份-22" node-id="102" stroke="none" target-height="344" target-width="942" target-x="148" target-y="484"></path><path d="M 507.54 641.40 L 507.54 597.46 L 528.86 597.46 L 528.86 562.10 L 507.54 562.10 L 507.54 452.64 L 450.34 452.64 L 383.00 565.22 L 383.00 597.46 L 464.38 597.46 L 464.38 641.40 L 507.54 641.40 Z M 464.38 562.10 L 427.20 562.10 L 449.30 524.14 L 457.30 507.66 L 464.90 491.38 L 465.94 491.38 L 465.48 501.56 L 464.96 512.96 L 464.55 524.36 L 464.38 534.54 L 464.38 562.10 Z M 614.92 645.04 L 621.08 644.77 L 626.92 643.98 L 632.47 642.70 L 637.77 640.93 L 642.83 638.67 L 647.64 635.93 L 652.19 632.69 L 656.49 628.95 L 660.57 624.68 L 664.42 619.82 L 667.74 614.81 L 670.80 609.25 L 673.60 603.11 L 676.13 596.34 L 678.36 588.88 L 680.04 581.65 L 681.40 573.82 L 682.42 565.34 L 683.06 556.16 L 683.30 546.24 L 683.06 536.35 L 682.42 527.23 L 681.40 518.82 L 680.04 511.08 L 678.36 503.95 L 676.13 496.60 L 673.60 489.93 L 670.80 483.89 L 667.74 478.45 L 664.42 473.54 L 660.57 468.80 L 656.50 464.62 L 652.20 460.98 L 647.64 457.83 L 642.83 455.16 L 637.77 452.98 L 632.48 451.26 L 626.93 450.02 L 621.09 449.26 L 614.92 449.00 L 608.71 449.26 L 602.83 450.01 L 597.25 451.25 L 591.94 452.95 L 586.86 455.13 L 582.02 457.78 L 577.45 460.92 L 573.13 464.55 L 569.05 468.72 L 565.20 473.44 L 561.87 478.34 L 558.80 483.78 L 555.99 489.81 L 553.46 496.48 L 551.23 503.84 L 549.54 510.97 L 548.18 518.73 L 547.16 527.16 L 546.52 536.31 L 546.28 546.24 L 546.52 556.16 L 547.16 565.34 L 548.18 573.82 L 549.54 581.65 L 551.23 588.88 L 553.46 596.34 L 555.99 603.11 L 558.79 609.25 L 561.87 614.80 L 565.20 619.82 L 569.05 624.67 L 573.14 628.95 L 577.46 632.69 L 582.03 635.92 L 586.86 638.67 L 591.94 640.93 L 597.26 642.70 L 602.84 643.98 L 608.72 644.77 L 614.92 645.04 Z M 614.92 609.16 L 612.19 609.00 L 609.57 608.45 L 607.03 607.51 L 604.70 606.16 L 602.42 604.25 L 600.18 601.69 L 598.32 598.83 L 596.51 595.12 L 594.78 590.40 L 593.45 585.57 L 592.26 579.61 L 591.23 572.35 L 590.57 565.07 L 590.13 556.43 L 589.96 546.24 L 590.13 536.06 L 590.57 527.47 L 591.23 520.29 L 592.26 513.13 L 593.45 507.31 L 594.78 502.63 L 596.51 498.07 L 598.32 494.51 L 600.18 491.80 L 602.41 489.39 L 604.69 487.61 L 607.03 486.37 L 609.56 485.52 L 612.18 485.02 L 614.92 484.88 L 617.66 485.02 L 620.27 485.52 L 622.78 486.37 L 625.11 487.61 L 627.36 489.39 L 629.57 491.80 L 631.40 494.51 L 633.18 498.07 L 634.89 502.63 L 636.19 507.30 L 637.37 513.13 L 638.37 520.29 L 639.03 527.47 L 639.46 536.06 L 639.62 546.24 L 639.46 556.43 L 639.03 565.07 L 638.37 572.35 L 637.37 579.61 L 636.20 585.57 L 634.89 590.40 L 633.19 595.12 L 631.40 598.83 L 629.57 601.69 L 627.35 604.26 L 625.10 606.17 L 622.78 607.51 L 620.26 608.45 L 617.65 609.00 L 614.92 609.16 Z M 766.50 645.04 L 774.21 644.77 L 781.60 643.99 L 788.71 642.70 L 795.69 640.87 L 802.21 638.58 L 808.29 635.82 L 812.69 633.38 L 816.74 630.70 L 820.48 627.77 L 823.91 624.60 L 827.06 621.13 L 829.83 617.42 L 832.22 613.46 L 834.26 609.23 L 835.85 604.85 L 837.01 600.20 L 837.73 595.23 L 838.00 589.92 L 837.76 585.03 L 837.13 580.50 L 836.14 576.29 L 834.79 572.36 L 833.10 568.70 L 830.47 564.31 L 827.41 560.32 L 823.91 556.70 L 819.93 553.42 L 815.66 550.57 L 811.07 548.08 L 806.13 545.94 L 800.82 544.16 L 800.82 542.86 L 806.92 539.96 L 812.20 536.81 L 816.75 533.43 L 820.62 529.81 L 823.89 525.96 L 826.27 522.40 L 828.21 518.66 L 829.73 514.70 L 830.84 510.50 L 831.52 506.03 L 831.76 501.26 L 831.54 496.21 L 830.94 491.50 L 829.99 487.08 L 828.68 482.94 L 827.03 479.05 L 824.44 474.39 L 821.36 470.12 L 817.76 466.21 L 813.62 462.65 L 809.16 459.58 L 804.22 456.85 L 798.75 454.48 L 792.71 452.49 L 786.64 451.01 L 780.11 449.92 L 773.06 449.24 L 765.46 449.00 L 759.75 449.20 L 754.23 449.77 L 748.89 450.70 L 743.71 451.98 L 736.92 454.20 L 730.32 456.98 L 723.86 460.32 L 717.64 464.12 L 711.49 468.39 L 705.40 473.18 L 712.02 481.20 L 712.95 481.61 L 716.19 482.22 L 725.36 483.15 L 737.08 483.95 L 748.95 484.58 L 758.53 484.99 L 763.38 485.14 L 767.81 485.39 L 771.58 486.07 L 774.78 487.13 L 777.50 488.52 L 779.79 490.24 L 781.76 492.36 L 783.32 494.83 L 784.47 497.69 L 785.21 501.02 L 785.48 504.90 L 785.26 508.37 L 784.54 511.58 L 783.34 514.56 L 782.12 516.61 L 780.54 518.55 L 778.56 520.38 L 776.15 522.12 L 772.70 523.98 L 768.30 525.64 L 762.77 527.06 L 757.16 527.98 L 750.32 528.59 L 742.06 528.82 L 742.06 561.58 L 752.19 561.80 L 760.37 562.40 L 766.89 563.29 L 771.87 564.33 L 775.96 565.53 L 779.29 566.84 L 781.97 568.24 L 784.55 570.04 L 786.62 571.95 L 788.24 573.99 L 789.45 576.17 L 790.58 579.35 L 791.26 582.87 L 791.46 586.80 L 791.19 590.16 L 790.48 593.14 L 789.33 595.80 L 787.76 598.20 L 785.82 600.32 L 783.48 602.19 L 780.72 603.82 L 777.48 605.21 L 772.99 606.49 L 767.81 607.31 L 761.82 607.60 L 757.03 607.46 L 752.61 606.99 L 748.53 606.22 L 743.81 605.52 L 736.29 604.88 L 727.52 604.43 L 719.03 604.34 L 715.22 604.48 L 712.38 604.76 L 710.00 605.28 L 709.10 605.84 L 700.20 618.00 L 703.84 621.95 L 707.81 625.65 L 712.12 629.09 L 716.81 632.29 L 721.68 635.09 L 726.94 637.59 L 732.64 639.79 L 738.80 641.67 L 744.95 643.09 L 751.59 644.14 L 758.76 644.80 L 766.50 645.04 Z" fill="#77a0ea" fill-rule="nonzero" group-id="1,2,3,13,20" id="403" node-id="105" stroke="none" target-height="196.03998" target-width="455" target-x="383" target-y="449"></path><path d="M 825.00 656.00 L 824.69 657.51 L 823.73 659.08 L 821.93 660.78 L 818.96 662.65 L 814.87 664.54 L 809.30 666.54 L 801.93 668.62 L 794.50 670.33 L 785.75 672.02 L 775.50 673.68 L 759.70 675.74 L 741.30 677.59 L 722.12 679.01 L 700.93 680.11 L 679.17 680.77 L 656.00 681.00 L 632.82 680.77 L 611.07 680.11 L 589.88 679.01 L 570.70 677.59 L 552.30 675.74 L 536.50 673.68 L 526.25 672.02 L 517.50 670.33 L 510.07 668.62 L 502.70 666.54 L 497.13 664.54 L 493.04 662.65 L 490.07 660.78 L 488.27 659.08 L 487.31 657.51 L 487.00 656.00 L 487.31 654.49 L 488.27 652.92 L 490.07 651.22 L 493.04 649.35 L 497.13 647.46 L 502.70 645.46 L 510.07 643.38 L 517.50 641.67 L 526.25 639.98 L 536.50 638.32 L 552.30 636.26 L 570.70 634.41 L 589.88 632.99 L 611.07 631.89 L 632.83 631.23 L 656.00 631.00 L 679.17 631.23 L 700.93 631.89 L 722.12 632.99 L 741.30 634.41 L 759.70 636.26 L 775.50 638.32 L 785.75 639.98 L 794.50 641.67 L 801.93 643.38 L 809.30 645.46 L 814.87 647.46 L 818.96 649.35 L 821.93 651.22 L 823.73 652.92 L 824.69 654.49 L 825.00 656.00 Z" fill="#deeaff" fill-rule="evenodd" filter="url(#filter-16)" group-id="1,2,3,13,21" id="椭圆形" node-id="106" stroke="none" target-height="50" target-width="338" target-x="487" target-y="631"></path><path d="M 723.00 714.00 L 722.76 714.89 L 722.01 715.84 L 720.50 716.91 L 717.90 718.11 L 714.48 719.26 L 709.84 720.45 L 703.71 721.68 L 694.11 723.14 L 682.06 724.49 L 669.26 725.53 L 654.61 726.34 L 639.43 726.83 L 623.00 727.00 L 606.57 726.83 L 591.39 726.34 L 576.74 725.53 L 563.94 724.49 L 551.89 723.14 L 542.29 721.68 L 536.16 720.45 L 531.52 719.26 L 528.10 718.11 L 525.50 716.91 L 523.99 715.84 L 523.24 714.89 L 523.00 714.00 L 523.24 713.11 L 523.99 712.16 L 525.50 711.09 L 528.10 709.89 L 531.52 708.74 L 536.16 707.55 L 542.29 706.32 L 551.89 704.86 L 563.94 703.51 L 576.74 702.47 L 591.39 701.66 L 606.57 701.17 L 623.00 701.00 L 639.43 701.17 L 654.61 701.66 L 669.26 702.47 L 682.06 703.51 L 694.11 704.86 L 703.71 706.32 L 709.84 707.55 L 714.48 708.74 L 717.90 709.89 L 720.50 711.09 L 722.01 712.16 L 722.76 713.11 L 723.00 714.00 Z" fill="#d7e7ff" fill-rule="evenodd" filter="url(#filter-17)" group-id="1,2,3,13,22,29" id="椭圆形备份-5" node-id="108" stroke="none" target-height="26" target-width="200" target-x="523" target-y="701"></path><path d="M 669.33 718.97 L 671.49 724.33 L 652.04 729.52 L 647.37 730.96 L 646.45 730.96 L 643.91 730.35 L 637.07 727.93 L 628.45 724.37 L 619.62 720.31 L 612.17 716.41 L 609.26 714.59 L 607.69 713.33 L 605.92 711.96 L 603.21 710.50 L 600.15 709.27 L 596.57 708.13 L 592.85 707.22 L 589.07 706.53 L 585.33 706.10 L 582.02 705.98 L 578.92 706.23 L 576.70 706.81 L 574.11 707.57 L 571.25 707.82 L 568.05 707.53 L 564.44 706.62 L 560.32 704.98 L 557.79 697.85 L 556.23 692.11 L 555.45 687.52 L 555.29 683.91 L 555.62 681.08 L 556.32 678.87 L 557.36 677.16 L 558.72 675.86 L 560.45 674.90 L 566.87 672.41 L 571.79 670.89 L 576.84 669.93 L 583.64 669.10 L 588.88 668.71 L 592.88 668.71 L 596.57 668.96 L 599.60 669.32 L 605.27 669.97 L 607.24 670.22 L 608.70 670.57 L 611.32 671.33 L 612.61 671.53 L 614.23 671.48 L 615.99 671.13 L 618.55 670.25 L 621.23 669.39 L 624.86 668.70 L 629.66 668.24 L 635.88 668.10 L 643.78 668.36 L 661.82 672.70 L 669.05 674.80 L 670.84 675.27 L 672.34 675.46 L 674.80 675.76 L 675.65 676.17 L 676.24 676.99 L 677.59 680.84 L 677.93 682.70 L 677.77 683.45 L 677.38 683.68 L 676.56 683.44 L 663.48 681.60 L 656.48 680.26 L 653.31 679.32 L 650.41 678.39 L 648.33 678.18 L 646.83 678.48 L 631.78 679.26 L 622.82 680.12 L 618.04 680.96 L 615.87 681.71 L 615.13 682.31 L 615.09 682.85 L 615.21 683.88 L 614.87 685.36 L 613.51 688.84 L 612.79 690.80 L 612.24 692.89 L 612.02 695.00 L 612.29 697.12 L 612.78 698.46 L 613.63 699.79 L 614.91 701.16 L 620.06 705.37 L 629.19 712.12 L 643.88 722.32 L 669.33 718.97 Z" fill="#ffffff" fill-rule="evenodd" group-id="1,2,3,13,22,30,31,32" id="路径-57" node-id="112" stroke="none" target-height="62.867126" target-width="122.63794" target-x="555.2901" target-y="668.09753"></path><path d="M 670.90 723.09 L 671.50 724.04 L 672.36 724.75 L 673.53 725.22 L 674.80 725.41 L 676.16 725.31 L 677.66 724.88 L 679.03 724.15 L 680.09 723.27 L 680.87 722.26 L 681.38 721.10 L 681.51 720.00 L 681.28 718.89 L 680.67 717.94 L 679.81 717.23 L 678.65 716.75 L 677.38 716.56 L 676.01 716.67 L 674.51 717.09 L 673.14 717.83 L 672.09 718.70 L 671.30 719.72 L 670.80 720.87 L 670.67 721.98 L 670.90 723.09 Z" fill="#ffd3bd" fill-rule="evenodd" group-id="1,2,3,13,22,30,31,32" id="椭圆形" node-id="113" stroke="none" target-height="8.846008" target-width="10.837524" target-x="670.66876" target-y="716.56494"></path><path d="M 614.65 695.98 L 615.65 697.74 L 617.05 699.19 L 618.89 700.37 L 620.96 701.18 L 623.30 701.67 L 625.98 701.83 L 628.67 701.63 L 631.47 701.06 L 634.42 700.07 L 637.22 698.73 L 639.64 697.20 L 641.71 695.48 L 643.53 693.50 L 644.87 691.51 L 645.79 689.50 L 646.30 687.37 L 646.30 685.36 L 645.80 683.40 L 644.80 681.64 L 643.40 680.19 L 641.56 679.01 L 639.49 678.20 L 637.14 677.71 L 634.46 677.55 L 631.78 677.75 L 628.98 678.32 L 626.03 679.31 L 623.23 680.65 L 620.81 682.18 L 618.74 683.90 L 616.92 685.88 L 615.58 687.87 L 614.66 689.88 L 614.15 692.01 L 614.15 694.02 L 614.65 695.98 Z" fill="#fedcdc" fill-rule="evenodd" group-id="1,2,3,13,22,30,31,32" id="椭圆形" node-id="114" stroke="none" target-height="24.286133" target-width="32.151794" target-x="614.1475" target-y="677.5469"></path><path d="M 607.74 694.83 L 608.17 695.33 L 609.05 695.69 L 610.62 695.84 L 613.18 695.64 L 616.75 694.92 L 620.51 693.82 L 624.81 692.25 L 629.00 690.39 L 632.47 688.56 L 635.54 686.60 L 637.52 684.97 L 638.55 683.77 L 638.93 682.90 L 638.89 682.24 L 638.46 681.74 L 637.59 681.38 L 636.01 681.23 L 633.45 681.44 L 629.88 682.16 L 626.12 683.25 L 621.82 684.83 L 617.63 686.68 L 614.16 688.51 L 611.09 690.47 L 609.11 692.10 L 608.08 693.30 L 607.70 694.17 L 607.74 694.83 Z" fill="#fedcdc" fill-rule="evenodd" group-id="1,2,3,13,22,30,31,32" id="椭圆形备份-3" node-id="115" stroke="none" target-height="14.612061" target-width="31.22815" target-x="607.7016" target-y="681.2307"></path><path d="M 618.48 689.76 L 619.05 691.42 L 620.04 692.90 L 621.48 694.21 L 623.18 695.24 L 625.20 696.04 L 627.58 696.61 L 630.02 696.86 L 632.64 696.81 L 635.46 696.44 L 638.22 695.73 L 640.67 694.79 L 642.84 693.64 L 644.83 692.22 L 646.40 690.72 L 647.59 689.14 L 648.44 687.38 L 648.80 685.64 L 648.71 683.88 L 648.13 682.21 L 647.15 680.74 L 645.70 679.43 L 644.00 678.40 L 641.99 677.60 L 639.61 677.03 L 637.17 676.77 L 634.55 676.82 L 631.72 677.20 L 628.96 677.91 L 626.52 678.84 L 624.35 680.00 L 622.35 681.41 L 620.79 682.91 L 619.60 684.50 L 618.75 686.26 L 618.39 688.00 L 618.48 689.76 Z" fill="#483e3e" fill-rule="evenodd" group-id="1,2,3,13,22,30,31,32,34" id="椭圆形" node-id="116" stroke="none" target-height="20.088196" target-width="30.410034" target-x="618.3882" target-y="676.7744"></path><path d="M 569.69 671.82 L 567.74 671.47 L 564.56 671.50 L 556.83 672.18 L 552.45 672.50 L 547.86 672.59 L 543.29 672.29 L 538.96 671.46 L 536.21 670.52 L 533.73 669.21 L 531.47 667.52 L 527.42 664.03 L 523.34 660.76 L 515.51 654.56 L 511.95 651.49 L 508.97 648.51 L 507.22 646.39 L 505.83 644.27 L 504.77 642.13 L 498.71 627.13 L 487.10 631.82 L 493.80 648.66 L 498.40 659.00 L 501.44 664.75 L 503.36 667.50 L 504.53 668.49 L 510.06 671.67 L 524.44 680.85 L 525.57 683.65 L 520.70 686.84 L 516.99 688.75 L 514.18 689.71 L 512.08 689.98 L 510.50 689.74 L 509.04 689.04 L 505.77 687.08 L 497.35 681.57 L 487.19 674.72 L 477.24 668.06 L 469.44 663.11 L 466.58 661.58 L 465.74 661.39 L 463.55 662.56 L 460.77 664.58 L 459.50 665.80 L 458.59 667.00 L 458.09 668.26 L 458.19 669.38 L 458.86 670.41 L 461.12 673.11 L 467.71 680.15 L 476.46 688.72 L 481.23 693.05 L 485.89 697.03 L 490.54 700.65 L 494.48 703.31 L 497.18 704.78 L 499.22 705.53 L 500.75 705.76 L 507.93 706.12 L 518.92 706.96 L 531.67 707.78 L 538.17 708.02 L 544.18 708.06 L 549.91 707.82 L 554.40 707.30 L 557.23 706.64 L 559.12 705.86 L 560.32 704.98 L 560.85 704.18 L 561.07 703.30 L 561.01 702.28 L 559.87 698.55 L 559.18 696.28 L 558.63 693.48 L 558.49 690.47 L 558.98 686.78 L 559.61 685.47 L 561.02 683.74 L 564.81 680.22 L 568.65 676.72 L 570.14 675.02 L 570.85 673.75 L 570.93 672.98 L 570.59 672.36 L 569.69 671.82 Z" fill="#3484fe" fill-rule="evenodd" group-id="1,2,3,13,22,30,31,32" id="路径-58" node-id="117" stroke="none" target-height="80.93414" target-width="112.84796" target-x="458.08588" target-y="627.12555"></path><path d="M 498.75 624.46 L 487.93 623.94 L 481.54 623.91 L 478.16 624.15 L 476.65 624.50 L 475.80 625.21 L 475.43 626.38 L 475.43 627.77 L 475.70 629.33 L 476.54 632.05 L 477.02 633.24 L 485.67 634.90 L 491.83 632.41 L 497.77 628.02 L 498.75 624.46 Z" fill="#373535" fill-rule="evenodd" group-id="1,2,3,13,22,30,31,32" id="路径-59" node-id="118" stroke="none" target-height="10.990906" target-width="23.320984" target-x="475.42755" target-y="623.90814"></path><path d="M 465.42 659.94 L 458.57 660.69 L 453.61 661.66 L 450.12 662.77 L 447.79 663.95 L 446.30 665.15 L 444.96 666.91 L 444.35 668.39 L 444.29 669.70 L 444.71 670.93 L 445.69 672.16 L 451.85 673.48 L 457.39 671.24 L 463.59 664.93 L 465.42 659.94 Z" fill="#373535" fill-rule="evenodd" group-id="1,2,3,13,22,30,31,32" id="路径-60" node-id="119" stroke="none" target-height="13.535828" target-width="21.136597" target-x="444.28564" target-y="659.9397"></path><path d="M 677.59 675.84 L 681.74 678.52 L 684.10 680.43 L 685.24 681.74 L 685.63 682.65 L 685.56 683.32 L 684.98 684.16 L 683.96 684.84 L 682.35 685.35 L 679.91 685.60 L 676.66 686.91 L 677.59 675.84 Z" fill="#ffd2bd" fill-rule="evenodd" group-id="1,2,3,13,22,30,31,32" id="路径-61" node-id="120" stroke="none" target-height="11.075806" target-width="8.972595" target-x="676.66003" target-y="675.8367"></path><path d="M 644.01 694.86 L 645.79 696.26 L 646.59 696.61 L 647.48 696.53 L 648.35 696.07 L 649.27 695.17 L 649.92 694.06 L 650.16 693.10 L 650.02 692.22 L 649.49 691.53 L 647.70 690.14 L 649.02 687.63 L 649.99 685.17 L 650.63 682.75 L 650.96 680.28 L 650.93 678.01 L 650.57 675.91 L 649.85 673.94 L 648.78 672.25 L 647.35 670.82 L 645.61 669.78 L 643.72 669.15 L 641.63 668.92 L 639.51 669.08 L 637.30 669.61 L 634.98 670.52 L 632.79 671.73 L 630.64 673.26 L 628.52 675.15 L 626.73 673.75 L 625.94 673.41 L 625.05 673.48 L 624.17 673.94 L 623.26 674.85 L 622.60 675.95 L 622.37 676.91 L 622.51 677.80 L 623.04 678.48 L 644.01 694.86 Z" fill="#fbea34" fill-rule="nonzero" group-id="1,2,3,13,22,30,31,33" id="形状备份-4" node-id="121" stroke="none" target-height="27.68689" target-width="28.586975" target-x="622.36993" target-y="668.9226"></path><path d="M 560.55 699.28 L 572.75 696.75 L 582.67 695.15 L 590.63 694.32 L 596.92 694.11 L 601.82 694.39 L 605.56 695.03 L 608.38 695.96 L 610.45 697.10 L 611.94 698.43" fill="none" group-id="1,2,3,13,22,30" id="路径-62" node-id="122" stroke="#3484fe" stroke-linecap="round" stroke-width="3" target-height="5.1693115" target-width="51.38794" target-x="560.5511" target-y="694.11145"></path><path d="M 563.88 678.85 L 615.53 683.05" fill="none" group-id="1,2,3,13,22,30" id="路径-63" node-id="123" stroke="#3484fe" stroke-linecap="round" stroke-width="3" target-height="4.1954956" target-width="51.644775" target-x="563.88385" target-y="678.852"></path><path d="M 490.00 703.00 L 490.25 706.76 L 490.95 709.77 L 492.02 712.17 L 493.43 714.08 L 495.20 715.56 L 497.37 716.66 L 500.03 717.37 L 503.31 717.62" fill="none" group-id="1,2,3,13,22" id="路径-64备份-2" node-id="124" stroke="#b9ceef" stroke-linecap="butt" stroke-width="1" target-height="14.620178" target-width="13.308472" target-x="490" target-y="703"></path><path d="M 478.00 707.00 L 478.20 709.35 L 478.75 711.08 L 479.58 712.34 L 480.68 713.23 L 482.12 713.79 L 484.00 714.00" fill="none" group-id="1,2,3,13,22" id="路径-64备份-3" node-id="125" stroke="#b9ceef" stroke-linecap="butt" stroke-width="1" target-height="7" target-width="6" target-x="478" target-y="707"></path><path d="M 494.26 640.00 L 494.26 596.06 L 515.58 596.06 L 515.58 560.70 L 494.26 560.70 L 494.26 451.24 L 437.06 451.24 L 369.72 563.82 L 369.72 596.06 L 451.10 596.06 L 451.10 640.00 L 494.26 640.00 Z M 451.10 560.70 L 413.92 560.70 L 436.02 522.74 L 444.01 506.26 L 451.62 489.98 L 452.66 489.98 L 452.20 500.16 L 451.69 511.56 L 451.27 522.96 L 451.10 533.14 L 451.10 560.70 Z M 601.64 643.64 L 607.80 643.37 L 613.64 642.58 L 619.19 641.30 L 624.49 639.53 L 629.55 637.27 L 634.36 634.53 L 638.91 631.29 L 643.21 627.55 L 647.29 623.28 L 651.14 618.42 L 654.46 613.41 L 657.52 607.85 L 660.32 601.71 L 662.85 594.94 L 665.08 587.48 L 666.76 580.25 L 668.12 572.42 L 669.14 563.94 L 669.78 554.76 L 670.02 544.84 L 669.78 534.95 L 669.14 525.83 L 668.12 517.42 L 666.76 509.68 L 665.08 502.55 L 662.85 495.20 L 660.32 488.53 L 657.52 482.49 L 654.46 477.05 L 651.14 472.14 L 647.29 467.40 L 643.22 463.22 L 638.92 459.58 L 634.36 456.43 L 629.55 453.76 L 624.49 451.58 L 619.20 449.86 L 613.65 448.62 L 607.81 447.86 L 601.64 447.60 L 595.43 447.86 L 589.55 448.61 L 583.97 449.85 L 578.66 451.55 L 573.58 453.73 L 568.74 456.38 L 564.17 459.52 L 559.85 463.15 L 555.77 467.32 L 551.91 472.04 L 548.59 476.94 L 545.52 482.38 L 542.71 488.41 L 540.18 495.08 L 537.95 502.44 L 536.26 509.57 L 534.90 517.33 L 533.88 525.76 L 533.24 534.91 L 533.00 544.84 L 533.24 554.76 L 533.88 563.94 L 534.90 572.42 L 536.26 580.25 L 537.95 587.48 L 540.18 594.94 L 542.71 601.71 L 545.51 607.85 L 548.59 613.40 L 551.91 618.42 L 555.77 623.27 L 559.86 627.55 L 564.18 631.29 L 568.75 634.52 L 573.58 637.27 L 578.66 639.53 L 583.98 641.30 L 589.56 642.58 L 595.44 643.37 L 601.64 643.64 Z M 601.64 607.76 L 598.91 607.60 L 596.29 607.05 L 593.75 606.11 L 591.42 604.76 L 589.14 602.85 L 586.90 600.29 L 585.04 597.43 L 583.23 593.72 L 581.50 589.00 L 580.17 584.17 L 578.98 578.21 L 577.95 570.95 L 577.29 563.67 L 576.85 555.03 L 576.68 544.84 L 576.85 534.66 L 577.29 526.07 L 577.95 518.89 L 578.98 511.73 L 580.17 505.91 L 581.50 501.23 L 583.23 496.67 L 585.04 493.12 L 586.90 490.40 L 589.13 487.99 L 591.41 486.21 L 593.75 484.97 L 596.28 484.12 L 598.90 483.62 L 601.64 483.48 L 604.38 483.62 L 606.99 484.12 L 609.50 484.97 L 611.83 486.21 L 614.08 487.99 L 616.29 490.40 L 618.12 493.11 L 619.90 496.67 L 621.61 501.23 L 622.91 505.90 L 624.09 511.73 L 625.09 518.89 L 625.75 526.07 L 626.18 534.66 L 626.34 544.84 L 626.18 555.03 L 625.75 563.67 L 625.09 570.95 L 624.09 578.21 L 622.92 584.17 L 621.61 589.00 L 619.91 593.72 L 618.12 597.43 L 616.29 600.29 L 614.07 602.86 L 611.82 604.76 L 609.50 606.11 L 606.98 607.05 L 604.37 607.60 L 601.64 607.76 Z M 753.22 643.64 L 760.93 643.37 L 768.32 642.59 L 775.43 641.30 L 782.41 639.47 L 788.93 637.18 L 795.01 634.42 L 799.41 631.98 L 803.46 629.30 L 807.20 626.37 L 810.63 623.20 L 813.78 619.73 L 816.55 616.02 L 818.94 612.06 L 820.98 607.83 L 822.57 603.45 L 823.73 598.80 L 824.45 593.83 L 824.72 588.52 L 824.48 583.63 L 823.85 579.10 L 822.86 574.89 L 821.51 570.96 L 819.82 567.30 L 817.19 562.91 L 814.13 558.92 L 810.63 555.30 L 806.65 552.02 L 802.38 549.17 L 797.79 546.68 L 792.85 544.54 L 787.54 542.76 L 787.54 541.46 L 793.64 538.56 L 798.92 535.41 L 803.47 532.03 L 807.34 528.41 L 810.62 524.56 L 812.99 521.00 L 814.93 517.26 L 816.45 513.30 L 817.56 509.10 L 818.24 504.63 L 818.48 499.86 L 818.26 494.81 L 817.66 490.10 L 816.71 485.68 L 815.40 481.54 L 813.75 477.65 L 811.16 472.99 L 808.08 468.72 L 804.48 464.81 L 800.35 461.25 L 795.88 458.18 L 790.94 455.45 L 785.47 453.08 L 779.43 451.09 L 773.36 449.61 L 766.83 448.52 L 759.78 447.84 L 752.18 447.60 L 746.47 447.80 L 740.95 448.37 L 735.61 449.30 L 730.43 450.58 L 723.64 452.80 L 717.04 455.58 L 710.58 458.92 L 704.36 462.72 L 698.21 467.00 L 692.12 471.78 L 715.52 500.12 L 721.37 495.20 L 726.80 491.25 L 730.53 488.98 L 734.24 487.12 L 737.96 485.68 L 741.79 484.62 L 745.83 483.97 L 750.10 483.74 L 754.53 483.99 L 758.30 484.67 L 761.50 485.73 L 764.22 487.12 L 766.51 488.84 L 768.48 490.97 L 770.04 493.43 L 771.19 496.29 L 771.93 499.62 L 772.20 503.50 L 771.98 506.97 L 771.26 510.18 L 770.06 513.16 L 768.84 515.21 L 767.26 517.15 L 765.28 518.98 L 762.87 520.73 L 759.42 522.58 L 755.02 524.24 L 749.49 525.66 L 743.88 526.58 L 737.04 527.19 L 728.78 527.42 L 728.78 560.18 L 738.91 560.40 L 747.09 561.00 L 753.61 561.89 L 758.59 562.93 L 762.68 564.13 L 766.01 565.44 L 768.69 566.84 L 771.27 568.64 L 773.34 570.55 L 774.96 572.59 L 776.16 574.77 L 777.30 577.95 L 777.98 581.47 L 778.18 585.40 L 777.91 588.76 L 777.20 591.74 L 776.05 594.40 L 774.48 596.80 L 772.54 598.92 L 770.20 600.79 L 767.44 602.42 L 764.20 603.81 L 759.71 605.09 L 754.53 605.91 L 748.54 606.20 L 743.55 605.91 L 738.71 605.10 L 733.99 603.77 L 729.41 601.99 L 724.93 599.80 L 720.54 597.19 L 716.33 594.26 L 712.24 591.03 L 708.24 587.48 L 686.92 616.60 L 690.56 620.55 L 694.53 624.25 L 698.84 627.69 L 703.53 630.89 L 708.40 633.69 L 713.66 636.19 L 719.36 638.39 L 725.52 640.27 L 731.67 641.69 L 738.31 642.74 L 745.48 643.40 L 753.22 643.64 Z" fill="#c7d9fc" fill-rule="nonzero" group-id="1,2,3" id="403" node-id="126" stroke="none" target-height="196.04001" target-width="454.99997" target-x="369.72" target-y="447.6"></path><path d="M 268.00 670.00 L 280.00 670.00 L 280.00 690.00 L 268.00 690.00 Z" fill="#b3ccff" fill-rule="nonzero" group-id="1,2,3,14" id="路径" node-id="128" stroke="none" target-height="20" target-width="12" target-x="268" target-y="670"></path><path d="M 275.00 674.00 L 298.00 674.00 L 286.50 654.00 L 275.00 634.00 L 263.50 654.00 L 252.00 674.00 Z" fill="#a8c4fc" fill-rule="nonzero" group-id="1,2,3,14" id="路径" node-id="129" stroke="none" target-height="40" target-width="46" target-x="252" target-y="634"></path><path d="M 274.00 664.00 L 294.00 664.00 L 284.00 647.00 L 274.00 630.00 L 264.00 647.00 L 254.00 664.00 Z" fill="#b9d1ff" fill-rule="nonzero" group-id="1,2,3,14" id="路径" node-id="130" stroke="none" target-height="34" target-width="40" target-x="254" target-y="630"></path><path d="M 275.00 652.00 L 292.00 652.00 L 283.50 637.00 L 275.00 622.00 L 266.50 637.00 L 258.00 652.00 Z" fill="#caddfd" fill-rule="nonzero" group-id="1,2,3,14" id="路径" node-id="131" stroke="none" target-height="30" target-width="34" target-x="258" target-y="622"></path><path d="M 896.00 566.00 L 908.00 566.00 L 908.00 586.00 L 896.00 586.00 Z" fill="#b3ccff" fill-opacity="0.5768927" fill-rule="nonzero" group-id="1,2,3,15" id="路径" node-id="133" stroke="none" target-height="20" target-width="12" target-x="896" target-y="566"></path><path d="M 903.00 570.00 L 926.00 570.00 L 914.50 550.00 L 903.00 530.00 L 891.50 550.00 L 880.00 570.00 Z" fill="#a8c4fc" fill-opacity="0.5768927" fill-rule="nonzero" group-id="1,2,3,15" id="路径" node-id="134" stroke="none" target-height="40" target-width="46" target-x="880" target-y="530"></path><path d="M 902.00 560.00 L 922.00 560.00 L 912.00 543.00 L 902.00 526.00 L 892.00 543.00 L 882.00 560.00 Z" fill="#b9d1ff" fill-opacity="0.5768927" fill-rule="nonzero" group-id="1,2,3,15" id="路径" node-id="135" stroke="none" target-height="34" target-width="40" target-x="882" target-y="526"></path><path d="M 903.00 548.00 L 920.00 548.00 L 911.50 533.00 L 903.00 518.00 L 894.50 533.00 L 886.00 548.00 Z" fill="#caddfd" fill-opacity="0.5768927" fill-rule="nonzero" group-id="1,2,3,15" id="路径" node-id="136" stroke="none" target-height="30" target-width="34" target-x="886" target-y="518"></path></g></g></g></svg>