<?xml version="1.0" standalone="no"?><!DOCTYPE svg PUBLIC "-//W3C//DTD SVG 1.1//EN" "http://www.w3.org/Graphics/SVG/1.1/DTD/svg11.dtd"><svg height="1000" node-id="1" sillyvg="true" template-height="1000" template-width="1000" version="1.1" viewBox="0 0 1000 1000" width="1000" xmlns="http://www.w3.org/2000/svg" xmlns:xlink="http://www.w3.org/1999/xlink"><defs node-id="47"><linearGradient gradientUnits="userSpaceOnUse" id="linear-gradient" node-id="9" spreadMethod="pad" x1="499" x2="499" y1="732" y2="1010"><stop offset="0" stop-color="#deecff"></stop><stop offset="1" stop-color="#ffffff" stop-opacity="0"></stop></linearGradient><linearGradient gradientUnits="userSpaceOnUse" id="linear-gradient-2" node-id="12" spreadMethod="pad" x1="465.39" x2="174.515" y1="393.875" y2="103"><stop offset="0" stop-color="#7dbcf7"></stop><stop offset="1" stop-color="#e7f2fe"></stop></linearGradient><linearGradient gradientUnits="userSpaceOnUse" id="linear-gradient-3" node-id="15" spreadMethod="pad" x1="625.63" x2="278.151" y1="590" y2="217.375"><stop offset="0" stop-color="#7dbcf7"></stop><stop offset="0.424" stop-color="#aad3fa" stop-opacity="0"></stop><stop offset="1" stop-color="#e7f2fe"></stop></linearGradient></defs><g node-id="68"><path d="M 385.00 236.00 L 642.00 236.00 L 642.00 813.00 L 385.00 813.00 Z" fill="#ecf4ff" fill-opacity="0.5" fill-rule="nonzero" group-id="1" id="矩形_654" node-id="20" stroke="none" target-height="577" target-width="257" target-x="385" target-y="236"></path><path d="M 417.00 280.00 L 441.00 280.00 L 441.00 304.00 L 417.00 304.00 L 417.00 280.00 Z M 458.00 280.00 L 482.00 280.00 L 482.00 304.00 L 458.00 304.00 L 458.00 280.00 Z M 502.00 280.00 L 526.00 280.00 L 526.00 304.00 L 502.00 304.00 L 502.00 280.00 Z M 543.00 280.00 L 567.00 280.00 L 567.00 304.00 L 543.00 304.00 L 543.00 280.00 Z M 588.00 280.00 L 612.00 280.00 L 612.00 304.00 L 588.00 304.00 L 588.00 280.00 Z M 417.00 330.00 L 441.00 330.00 L 441.00 354.00 L 417.00 354.00 L 417.00 330.00 Z M 458.00 330.00 L 482.00 330.00 L 482.00 354.00 L 458.00 354.00 L 458.00 330.00 Z M 502.00 330.00 L 526.00 330.00 L 526.00 354.00 L 502.00 354.00 L 502.00 330.00 Z M 543.00 330.00 L 567.00 330.00 L 567.00 354.00 L 543.00 354.00 L 543.00 330.00 Z M 588.00 330.00 L 612.00 330.00 L 612.00 354.00 L 588.00 354.00 L 588.00 330.00 Z M 417.00 380.00 L 441.00 380.00 L 441.00 404.00 L 417.00 404.00 L 417.00 380.00 Z M 458.00 380.00 L 482.00 380.00 L 482.00 404.00 L 458.00 404.00 L 458.00 380.00 Z M 502.00 380.00 L 526.00 380.00 L 526.00 404.00 L 502.00 404.00 L 502.00 380.00 Z M 543.00 380.00 L 567.00 380.00 L 567.00 404.00 L 543.00 404.00 L 543.00 380.00 Z M 588.00 380.00 L 612.00 380.00 L 612.00 404.00 L 588.00 404.00 L 588.00 380.00 Z M 417.00 430.00 L 441.00 430.00 L 441.00 454.00 L 417.00 454.00 L 417.00 430.00 Z M 458.00 430.00 L 482.00 430.00 L 482.00 454.00 L 458.00 454.00 L 458.00 430.00 Z M 502.00 430.00 L 526.00 430.00 L 526.00 454.00 L 502.00 454.00 L 502.00 430.00 Z M 543.00 430.00 L 567.00 430.00 L 567.00 454.00 L 543.00 454.00 L 543.00 430.00 Z M 588.00 430.00 L 612.00 430.00 L 612.00 454.00 L 588.00 454.00 L 588.00 430.00 Z M 417.00 480.00 L 441.00 480.00 L 441.00 504.00 L 417.00 504.00 L 417.00 480.00 Z M 458.00 480.00 L 482.00 480.00 L 482.00 504.00 L 458.00 504.00 L 458.00 480.00 Z M 502.00 480.00 L 526.00 480.00 L 526.00 504.00 L 502.00 504.00 L 502.00 480.00 Z M 543.00 480.00 L 567.00 480.00 L 567.00 504.00 L 543.00 504.00 L 543.00 480.00 Z M 588.00 480.00 L 612.00 480.00 L 612.00 504.00 L 588.00 504.00 L 588.00 480.00 Z M 417.00 530.00 L 441.00 530.00 L 441.00 554.00 L 417.00 554.00 L 417.00 530.00 Z M 458.00 530.00 L 482.00 530.00 L 482.00 554.00 L 458.00 554.00 L 458.00 530.00 Z M 502.00 530.00 L 526.00 530.00 L 526.00 554.00 L 502.00 554.00 L 502.00 530.00 Z M 543.00 530.00 L 567.00 530.00 L 567.00 554.00 L 543.00 554.00 L 543.00 530.00 Z M 588.00 530.00 L 612.00 530.00 L 612.00 554.00 L 588.00 554.00 L 588.00 530.00 Z M 417.00 580.00 L 441.00 580.00 L 441.00 604.00 L 417.00 604.00 L 417.00 580.00 Z M 458.00 580.00 L 482.00 580.00 L 482.00 604.00 L 458.00 604.00 L 458.00 580.00 Z M 502.00 580.00 L 526.00 580.00 L 526.00 604.00 L 502.00 604.00 L 502.00 580.00 Z M 543.00 580.00 L 567.00 580.00 L 567.00 604.00 L 543.00 604.00 L 543.00 580.00 Z M 588.00 580.00 L 612.00 580.00 L 612.00 604.00 L 588.00 604.00 L 588.00 580.00 Z M 417.00 630.00 L 441.00 630.00 L 441.00 654.00 L 417.00 654.00 L 417.00 630.00 Z M 458.00 630.00 L 482.00 630.00 L 482.00 654.00 L 458.00 654.00 L 458.00 630.00 Z M 502.00 630.00 L 526.00 630.00 L 526.00 654.00 L 502.00 654.00 L 502.00 630.00 Z M 543.00 630.00 L 567.00 630.00 L 567.00 654.00 L 543.00 654.00 L 543.00 630.00 Z M 588.00 630.00 L 612.00 630.00 L 612.00 654.00 L 588.00 654.00 L 588.00 630.00 Z" fill="#deebfd" fill-opacity="0.5" fill-rule="evenodd" group-id="1" id="矩形_657_拷贝_7" node-id="21" stroke="none" target-height="374" target-width="195" target-x="417" target-y="280"></path><path d="M 50.74 348.86 L 275.91 301.99 L 381.26 808.14 L 156.09 855.01 Z" fill="#ecf4ff" fill-opacity="0.5" fill-rule="evenodd" group-id="1" id="矩形_654_拷贝" node-id="22" stroke="none" target-height="553.02" target-width="330.52197" target-x="50.739" target-y="301.99"></path><path d="M 86.81 381.62 L 107.84 377.24 L 112.22 398.30 L 91.19 402.67 Z M 122.73 374.14 L 143.76 369.76 L 148.14 390.82 L 127.11 395.20 Z M 161.28 366.12 L 182.31 361.74 L 186.69 382.80 L 165.67 387.17 Z M 197.21 358.64 L 218.24 354.26 L 222.62 375.32 L 201.59 379.69 Z M 236.63 350.44 L 257.66 346.06 L 262.05 367.11 L 241.02 371.49 Z M 95.94 425.48 L 116.96 421.10 L 121.34 442.16 L 100.32 446.53 Z M 131.86 418.00 L 152.89 413.62 L 157.27 434.68 L 136.24 439.05 Z M 170.41 409.98 L 191.44 405.60 L 195.82 426.65 L 174.79 431.03 Z M 206.34 402.50 L 227.36 398.12 L 231.75 419.18 L 210.72 423.55 Z M 245.76 394.29 L 266.79 389.92 L 271.17 410.97 L 250.15 415.35 Z M 105.06 469.34 L 126.09 464.96 L 130.47 486.01 L 109.44 490.39 Z M 140.99 461.86 L 162.01 457.48 L 166.40 478.54 L 145.37 482.92 Z M 179.54 453.84 L 200.56 449.46 L 204.95 470.51 L 183.92 474.89 Z M 215.46 446.36 L 236.49 441.98 L 240.87 463.04 L 219.84 467.41 Z M 254.89 438.15 L 275.92 433.78 L 280.30 454.83 L 259.27 459.21 Z M 114.20 513.20 L 135.23 508.82 L 139.61 529.88 L 118.58 534.25 Z M 150.12 505.72 L 171.15 501.35 L 175.53 522.40 L 154.50 526.78 Z M 188.67 497.70 L 209.70 493.32 L 214.08 514.38 L 193.05 518.75 Z M 224.59 490.22 L 245.62 485.85 L 250.00 506.90 L 228.97 511.28 Z M 264.02 482.02 L 285.05 477.64 L 289.43 498.69 L 268.40 503.07 Z M 123.32 557.06 L 144.35 552.68 L 148.73 573.74 L 127.70 578.12 Z M 159.24 549.59 L 180.27 545.21 L 184.65 566.26 L 163.63 570.64 Z M 197.79 541.56 L 218.82 537.18 L 223.21 558.24 L 202.18 562.61 Z M 233.72 534.08 L 254.75 529.71 L 259.13 550.76 L 238.10 555.14 Z M 273.14 525.88 L 294.17 521.50 L 298.56 542.55 L 277.53 546.93 Z M 132.45 600.92 L 153.48 596.55 L 157.86 617.60 L 136.84 621.98 Z M 168.38 593.45 L 189.41 589.07 L 193.79 610.12 L 172.76 614.50 Z M 206.93 585.42 L 227.96 581.04 L 232.34 602.10 L 211.31 606.48 Z M 242.85 577.95 L 263.88 573.57 L 268.26 594.62 L 247.23 599.00 Z M 282.28 569.74 L 303.31 565.36 L 307.69 586.41 L 286.66 590.79 Z M 141.58 644.78 L 162.61 640.41 L 166.99 661.46 L 145.96 665.84 Z M 177.50 637.31 L 198.53 632.93 L 202.91 653.98 L 181.88 658.36 Z M 216.05 629.28 L 237.08 624.91 L 241.46 645.96 L 220.43 650.34 Z M 251.97 621.81 L 273.00 617.43 L 277.38 638.48 L 256.36 642.86 Z M 291.40 613.60 L 312.43 609.22 L 316.81 630.28 L 295.78 634.65 Z M 150.71 688.64 L 171.74 684.27 L 176.12 705.32 L 155.09 709.70 Z M 186.63 681.17 L 207.66 676.79 L 212.04 697.84 L 191.02 702.22 Z M 225.19 673.14 L 246.21 668.77 L 250.60 689.82 L 229.57 694.20 Z M 261.11 665.67 L 282.14 661.29 L 286.52 682.34 L 265.49 686.72 Z M 300.54 657.46 L 321.56 653.08 L 325.95 674.14 L 304.92 678.51 Z" fill="#deebfd" fill-opacity="0.5" fill-rule="evenodd" group-id="1" id="矩形_657_拷贝_8" node-id="23" stroke="none" target-height="363.642" target-width="239.13602" target-x="86.81" target-y="346.058"></path><path d="M 729.34 362.18 L 922.67 400.07 L 837.66 833.82 L 644.33 795.93 Z" fill="#ecf4ff" fill-opacity="0.5" fill-rule="evenodd" group-id="1" id="矩形_654_拷贝_2" node-id="24" stroke="none" target-height="471.63797" target-width="278.33203" target-x="644.334" target-y="362.181"></path><path d="M 746.92 399.98 L 764.99 403.53 L 761.46 421.56 L 743.38 418.02 Z M 777.78 406.03 L 795.83 409.57 L 792.29 427.61 L 774.25 424.07 Z M 810.88 412.52 L 828.93 416.06 L 825.39 434.09 L 807.35 430.56 Z M 841.72 418.56 L 859.76 422.10 L 856.23 440.14 L 838.18 436.60 Z M 875.58 425.20 L 893.62 428.74 L 890.09 446.77 L 872.04 443.24 Z M 739.56 437.55 L 757.63 441.10 L 754.09 459.13 L 736.02 455.59 Z M 770.42 443.60 L 788.47 447.14 L 784.93 465.17 L 766.88 461.64 Z M 803.52 450.09 L 821.57 453.62 L 818.03 471.66 L 799.99 468.12 Z M 834.36 456.13 L 852.40 459.67 L 848.86 477.71 L 830.82 474.17 Z M 868.22 462.77 L 886.26 466.30 L 882.73 484.34 L 864.68 480.80 Z M 732.19 475.15 L 750.26 478.69 L 746.72 496.73 L 728.65 493.19 Z M 763.05 481.20 L 781.10 484.74 L 777.56 502.77 L 759.52 499.24 Z M 796.15 487.69 L 814.20 491.22 L 810.66 509.26 L 792.62 505.72 Z M 826.99 493.73 L 845.03 497.27 L 841.49 515.30 L 823.45 511.76 Z M 860.85 500.37 L 878.89 503.90 L 875.36 521.94 L 857.31 518.40 Z M 724.82 512.72 L 742.90 516.26 L 739.36 534.33 L 721.28 530.78 Z M 755.69 518.77 L 773.73 522.31 L 770.19 540.37 L 752.15 536.83 Z M 788.79 525.26 L 806.83 528.79 L 803.29 546.86 L 785.25 543.32 Z M 819.62 531.30 L 837.67 534.84 L 834.12 552.90 L 816.08 549.36 Z M 853.48 537.94 L 871.52 541.47 L 867.98 559.54 L 849.94 556.00 Z M 717.46 550.32 L 735.53 553.86 L 731.99 571.90 L 713.92 568.36 Z M 748.32 556.37 L 766.36 559.90 L 762.83 577.94 L 744.78 574.40 Z M 781.42 562.85 L 799.46 566.39 L 795.93 584.43 L 777.88 580.89 Z M 812.26 568.90 L 830.30 572.43 L 826.77 590.47 L 808.72 586.93 Z M 846.11 575.53 L 864.16 579.07 L 860.62 597.11 L 842.58 593.57 Z M 710.09 587.91 L 728.16 591.46 L 724.62 609.49 L 706.55 605.95 Z M 740.95 593.96 L 759.00 597.50 L 755.46 615.54 L 737.41 612.00 Z M 774.05 600.45 L 792.10 603.99 L 788.56 622.02 L 770.52 618.49 Z M 804.89 606.49 L 822.93 610.03 L 819.40 628.07 L 801.35 624.53 Z M 838.75 613.13 L 856.79 616.66 L 853.25 634.70 L 835.21 631.16 Z M 702.72 625.48 L 720.79 629.02 L 717.26 647.06 L 699.19 643.52 Z M 733.59 631.53 L 751.63 635.07 L 748.10 653.11 L 730.05 649.57 Z M 766.69 638.02 L 784.73 641.56 L 781.20 659.59 L 763.15 656.06 Z M 797.52 644.06 L 815.57 647.60 L 812.03 665.64 L 793.99 662.10 Z M 831.38 650.70 L 849.43 654.24 L 845.89 672.27 L 827.85 668.74 Z M 695.36 663.08 L 713.43 666.62 L 709.89 684.66 L 691.82 681.12 Z M 726.22 669.13 L 744.26 672.66 L 740.73 690.70 L 722.68 687.16 Z M 759.31 675.62 L 777.36 679.15 L 773.82 697.19 L 755.78 693.65 Z M 790.15 681.66 L 808.20 685.20 L 804.66 703.24 L 786.62 699.70 Z M 824.01 688.29 L 842.05 691.83 L 838.52 709.87 L 820.47 706.33 Z" fill="#deebfd" fill-opacity="0.5" fill-rule="evenodd" group-id="1" id="矩形_657_拷贝_9" node-id="25" stroke="none" target-height="309.885" target-width="201.80298" target-x="691.82" target-y="399.984"></path><path d="M 915.00 871.00 C 915.00 907.87 871.17 943.22 793.16 969.29 C 715.14 995.36 609.33 1010.00 499.00 1010.00 C 388.67 1010.00 282.86 995.36 204.84 969.29 C 126.83 943.22 83.00 907.87 83.00 871.00 C 83.00 834.13 126.83 798.78 204.84 772.71 C 282.86 746.64 388.67 732.00 499.00 732.00 C 609.33 732.00 715.14 746.64 793.16 772.71 C 871.17 798.78 915.00 834.13 915.00 871.00 Z" fill="url(#linear-gradient)" fill-rule="nonzero" group-id="1" id="椭圆_655" node-id="26" stroke="none" target-height="278" target-width="832" target-x="83" target-y="732"></path></g><path d="M 373.00 463.00 L 257.00 463.00 L 254.00 543.00 C 254.00 543.00 355.77 500.77 365.00 595.00 C 371.68 663.18 278.09 693.79 232.00 640.00" fill="none" id="形状_910" node-id="27" stroke="#55a2f6" stroke-linecap="butt" stroke-width="40" target-height="230.79303" target-width="141" target-x="232" target-y="463"></path><path d="M 497.00 462.00 C 578.50 462.16 582.50 665.00 501.00 665.00 C 419.50 665.00 408.50 461.83 497.00 462.00 Z" fill="none" id="形状_911" node-id="28" stroke="#55a2f6" stroke-linecap="butt" stroke-width="40" target-height="203.172" target-width="174" target-x="408.5" target-y="461.828"></path><path d="M 697.00 462.00 C 778.50 462.16 782.50 665.00 701.00 665.00 C 619.50 665.00 608.50 461.83 697.00 462.00 Z" fill="none" id="形状_911_拷贝" node-id="29" stroke="#55a2f6" stroke-linecap="butt" stroke-width="40" target-height="203.172" target-width="174" target-x="608.5" target-y="461.828"></path><path d="M 390.31 220.88 C 390.31 280.05 342.34 328.02 283.17 328.02 C 224.00 328.02 176.03 280.05 176.03 220.88 C 176.03 161.70 224.00 113.73 283.17 113.73 C 342.34 113.73 390.31 161.70 390.31 220.88 Z" fill="#7dbcf7" fill-rule="nonzero" group-id="2" id="椭圆_820" node-id="31" stroke="none" target-height="214.28198" target-width="214.28198" target-x="176.031" target-y="113.734"></path><path d="M 282.00 195.51 C 386.46 120.71 488.13 83.78 509.10 113.01 C 530.07 142.24 462.38 226.57 357.92 301.37 C 253.47 376.16 151.78 413.10 130.82 383.87 C 109.86 354.63 177.54 270.30 282.00 195.51 Z" fill="url(#linear-gradient-2)" fill-rule="evenodd" group-id="2" id="椭圆_818" node-id="32" stroke="none" target-height="329.32202" target-width="420.21396" target-x="109.855" target-y="83.778"></path><path d="M 313.37 242.15 C 344.70 219.71 375.20 208.63 381.49 217.40 C 387.78 226.17 367.48 251.47 336.14 273.90 C 304.80 296.33 274.30 307.42 268.01 298.65 C 261.72 289.88 282.03 264.59 313.37 242.15 Z" fill="#e7f2fe" fill-rule="evenodd" group-id="2" id="椭圆_818_拷贝" node-id="33" stroke="none" target-height="98.791" target-width="126.061005" target-x="261.723" target-y="208.628"></path><path d="M 380.73 219.28 L 635.00 387.06 L 339.15 590.00 L 268.78 297.57 C 268.78 297.57 269.34 267.98 315.96 237.65 C 360.56 208.65 380.73 219.28 380.73 219.28 Z" fill="url(#linear-gradient-3)" fill-rule="evenodd" group-id="2" id="形状_824" node-id="34" stroke="none" target-height="381.353" target-width="366.22" target-x="268.78" target-y="208.647"></path><path d="M 633.46 623.38 C 656.18 623.38 646.18 656.67 629.82 656.67 C 613.46 656.67 609.83 623.38 633.46 623.38 Z" fill="#f5b08a" fill-rule="evenodd" group-id="3" id="tou" node-id="36" stroke="none" target-height="33.29004" target-width="46.35797" target-x="609.825" target-y="623.384"></path><path d="M 629.82 639.73 C 629.82 639.73 617.08 638.82 616.49 633.07 C 616.24 630.59 612.81 623.68 616.49 622.17 C 621.06 620.31 627.66 615.80 632.25 616.12 C 642.13 616.80 650.10 621.22 649.21 632.46 C 648.77 638.09 648.18 646.69 643.15 649.41 C 640.26 650.98 638.15 651.94 635.88 651.23 C 634.21 650.70 632.39 648.34 630.43 649.41 C 623.92 654.72 629.82 639.73 629.82 639.73 Z" fill="#555555" fill-rule="evenodd" group-id="3" id="形状_79" node-id="37" stroke="none" target-height="38.911987" target-width="37.297974" target-x="612.806" target-y="615.805"></path><path d="M 610.43 852.17 C 608.31 852.91 594.47 851.15 594.07 855.80 C 593.60 861.34 608.01 866.09 608.01 866.09 C 608.01 866.09 618.51 869.52 623.76 863.07 C 623.61 863.25 623.56 858.82 621.34 856.41 C 618.25 853.06 612.52 851.45 610.43 852.17 Z" fill="#3f1f1f" fill-rule="evenodd" group-id="3" id="形状_77" node-id="38" stroke="none" target-height="18.368958" target-width="30.166992" target-x="593.596" target-y="851.153"></path><path d="M 662.55 842.49 C 662.55 842.49 668.99 851.81 666.79 853.99 C 664.59 856.16 651.03 855.20 651.03 855.20 L 638.91 852.78 L 653.46 843.70 Z" fill="#3f1f1f" fill-rule="evenodd" group-id="3" id="形状_78" node-id="39" stroke="none" target-height="13.674988" target-width="30.076965" target-x="638.913" target-y="842.487"></path><path d="M 629.22 749.88 L 631.64 804.96 L 650.43 845.51 C 652.36 846.24 654.45 846.44 656.49 846.12 C 658.51 845.53 660.37 844.49 661.94 843.09 L 645.58 804.36 L 650.43 747.46 Z" fill="#555555" fill-rule="evenodd" group-id="3" id="tui" node-id="40" stroke="none" target-height="98.98279" target-width="32.723022" target-x="629.217" target-y="747.462"></path><path d="M 604.98 741.41 L 592.86 809.20 L 604.37 858.83 C 607.34 859.59 610.42 859.79 613.46 859.44 C 616.43 858.88 619.29 857.85 621.95 856.41 L 609.83 806.78 L 634.07 751.10 Z" fill="#555555" fill-rule="evenodd" group-id="3" id="tui-2" node-id="41" stroke="none" target-height="118.38452" target-width="41.208008" target-x="592.857" target-y="741.409"></path><path d="M 571.04 619.15 C 571.04 619.15 570.54 606.19 564.38 605.23 C 547.76 602.62 564.38 623.38 564.38 623.38 Z" fill="#f5b08a" fill-rule="evenodd" group-id="3" id="形状_80" node-id="42" stroke="none" target-height="20.761963" target-width="23.278015" target-x="547.764" target-y="602.622"></path><path d="M 642.55 660.30 C 642.55 660.30 667.80 680.68 668.00 686.94 C 668.20 693.19 650.43 714.17 650.43 714.17 L 644.97 707.51 L 655.27 688.75 L 633.46 670.59 Z" fill="#2c88f3" fill-rule="evenodd" group-id="3" id="ge" node-id="43" stroke="none" target-height="53.86798" target-width="34.743042" target-x="633.457" target-y="660.305"></path><path d="M 630.43 651.23 C 626.07 651.23 619.75 648.54 615.28 654.86 C 606.40 667.40 599.52 742.01 599.52 742.01 C 599.52 742.01 597.10 754.73 627.40 754.73 C 657.70 754.73 653.46 740.20 653.46 740.20 C 653.46 740.20 653.88 681.61 642.55 658.49 C 640.25 653.93 635.53 651.10 630.43 651.23 Z" fill="#2c88f3" fill-rule="evenodd" group-id="3" id="yi" node-id="44" stroke="none" target-height="106.181946" target-width="60.599976" target-x="597.099" target-y="648.543"></path><path d="M 624.98 657.88 L 589.83 651.83 L 571.65 618.54 L 562.56 622.17 C 562.56 622.17 574.68 657.68 577.71 661.52 C 580.74 665.35 621.95 671.80 621.95 671.80 Z" fill="#2c88f3" fill-rule="evenodd" group-id="3" id="ge-2" node-id="45" stroke="none" target-height="53.263" target-width="62.416992" target-x="562.558" target-y="618.542"></path></svg>