<?xml version="1.0" standalone="no"?><!DOCTYPE svg PUBLIC "-//W3C//DTD SVG 1.1//EN" "http://www.w3.org/Graphics/SVG/1.1/DTD/svg11.dtd"><svg height="400" node-id="1" sillyvg="true" template-height="400" template-width="600" version="1.1" viewBox="0 0 600 400" width="600" xmlns="http://www.w3.org/2000/svg" xmlns:xlink="http://www.w3.org/1999/xlink"><defs node-id="94"></defs><path d="M 0.00 0.00 L 600.00 0.00 L 600.00 400.00 L 0.00 400.00 Z" fill="#ffffff" fill-rule="evenodd" node-id="97" stroke="none" target-height="400" target-width="600" target-x="0" target-y="0"></path><g node-id="142"><g node-id="147"><path d="M 540.20 297.00 L 530.90 300.10 L 526.10 301.20 L 519.20 302.20 L 510.80 302.60 L 504.30 302.30 L 500.00 301.70 L 492.20 299.70 L 488.70 298.30 L 485.50 296.60 L 482.80 294.60 L 480.30 292.30 L 478.40 289.80 L 476.90 286.90 L 475.80 282.80 L 475.50 279.70 L 475.80 276.40 L 476.50 273.20 L 479.10 266.50 L 483.20 259.90 L 487.10 255.00 L 490.60 251.40 L 498.50 244.70 L 504.00 240.90 L 509.40 237.90 L 514.90 235.30 L 522.50 232.70 L 530.40 231.40 L 534.70 231.20 L 538.70 231.50 L 542.40 232.20 L 545.80 233.30 L 550.10 235.30 L 553.00 237.20 L 555.70 239.40 L 560.20 244.70 L 563.60 251.10 L 565.30 256.00 L 566.00 259.70 L 566.40 263.50 L 566.20 267.20 L 565.60 270.90 L 564.60 274.50 L 562.60 278.70 L 558.50 284.60 L 554.80 288.30 L 551.50 290.90 L 547.70 293.30 L 540.20 297.00 Z" fill="#ffcb01" fill-rule="nonzero" group-id="1,6" id="Path" node-id="8" stroke="none" target-height="71.40001" target-width="90.900024" target-x="475.5" target-y="231.2"></path><path d="M 546.90 260.80 L 564.10 275.70 L 564.60 274.50 L 548.10 260.30 L 564.10 252.20 L 563.60 251.10 L 548.20 258.90 L 550.10 235.30 L 549.00 234.70 L 546.90 259.50 L 530.80 266.80 L 530.40 231.40 L 529.20 231.50 L 529.70 267.30 L 525.10 269.30 L 523.70 232.50 L 522.50 232.70 L 523.90 269.70 L 502.20 278.00 L 504.00 240.90 L 502.80 241.70 L 501.00 278.40 L 492.50 281.20 L 476.50 285.80 L 476.90 286.90 L 495.10 281.60 L 517.70 302.40 L 519.20 302.20 L 496.40 281.20 L 501.40 279.50 L 524.60 301.40 L 526.10 301.20 L 502.70 279.10 L 524.30 270.80 L 546.60 294.00 L 547.70 293.30 L 525.50 270.40 L 530.10 268.40 L 554.80 288.30 L 555.70 287.50 L 531.30 267.90 L 546.90 260.80 Z" fill="#ffffff" fill-rule="nonzero" group-id="1,6" id="Path" node-id="9" stroke="none" target-height="71" target-width="88.099976" target-x="476.5" target-y="231.4"></path></g><g node-id="148"><path d="M 532.90 246.80 L 527.70 255.50 L 520.70 264.80 L 516.00 270.00 L 508.30 276.80 L 504.50 279.50 L 500.40 281.80 L 496.50 283.40 L 492.70 284.40 L 489.80 284.70 L 487.00 284.60 L 484.30 284.00 L 481.70 283.00 L 478.30 280.80 L 476.10 278.70 L 474.10 276.20 L 472.30 273.20 L 470.30 268.90 L 468.70 264.10 L 467.60 258.80 L 466.80 253.40 L 466.60 247.70 L 466.80 240.50 L 467.40 235.00 L 468.50 229.60 L 470.00 224.30 L 472.30 218.20 L 475.40 212.60 L 477.90 209.00 L 480.50 206.10 L 483.30 203.60 L 486.30 201.50 L 489.40 199.90 L 492.50 198.60 L 498.20 197.30 L 502.90 197.00 L 507.60 197.30 L 512.20 198.10 L 516.80 199.40 L 522.20 201.70 L 527.20 204.50 L 532.70 208.90 L 534.80 211.20 L 536.50 213.80 L 537.90 216.60 L 538.80 219.60 L 539.40 224.00 L 539.30 227.60 L 538.70 231.70 L 537.20 236.90 L 535.40 241.60 L 532.90 246.80 Z" fill="#1b90fb" fill-rule="nonzero" group-id="1,7" id="Path" node-id="11" stroke="none" target-height="87.70001" target-width="72.80002" target-x="466.6" target-y="197"></path><path d="M 511.10 219.10 L 539.40 224.00 L 539.30 222.90 L 511.70 218.10 L 522.20 201.70 L 521.20 201.20 L 510.80 217.70 L 493.60 198.30 L 492.50 198.60 L 510.20 218.60 L 498.30 239.50 L 475.40 212.60 L 474.80 213.50 L 497.70 240.50 L 495.40 245.00 L 472.30 218.20 L 471.90 219.30 L 494.90 246.00 L 487.60 261.90 L 466.80 240.50 L 466.70 241.90 L 487.20 263.00 L 483.40 273.00 L 481.90 277.90 L 480.70 282.50 L 481.70 283.00 L 484.40 273.50 L 488.10 263.40 L 516.00 270.00 L 516.90 269.10 L 488.50 262.40 L 495.80 246.50 L 527.70 255.50 L 528.30 254.60 L 496.30 245.60 L 498.70 241.10 L 532.40 247.70 L 532.90 246.80 L 499.20 240.10 L 507.10 225.80 L 538.50 232.80 L 538.70 231.70 L 507.70 224.80 L 511.10 219.10 Z" fill="#ffffff" fill-rule="nonzero" group-id="1,7" id="Path" node-id="12" stroke="none" target-height="84.7" target-width="72.70001" target-x="466.7" target-y="198.3"></path></g><g node-id="149"><path d="M 523.20 340.10 L 518.80 341.60 L 514.20 342.70 L 509.70 343.30 L 505.10 343.50 L 499.00 343.10 L 494.50 342.30 L 489.00 340.70 L 482.30 337.70 L 476.40 333.60 L 471.70 328.60 L 469.90 325.80 L 468.40 322.80 L 466.90 317.00 L 466.70 313.80 L 466.90 310.50 L 468.50 304.00 L 471.70 297.70 L 476.20 291.70 L 481.10 286.90 L 485.20 283.70 L 489.70 280.80 L 494.50 278.30 L 503.00 275.00 L 509.40 273.60 L 513.80 273.10 L 518.00 273.10 L 523.30 273.70 L 527.30 274.80 L 531.10 276.40 L 535.10 278.80 L 537.50 280.80 L 541.80 285.70 L 545.10 291.80 L 546.90 297.90 L 547.50 302.30 L 547.60 306.70 L 546.80 312.60 L 545.50 317.20 L 543.60 321.70 L 541.00 326.00 L 538.60 329.10 L 535.90 331.90 L 531.80 335.30 L 527.80 337.90 L 523.20 340.10 Z" fill="#61dda0" fill-rule="nonzero" group-id="1,8" id="Path" node-id="14" stroke="none" target-height="70.399994" target-width="80.89996" target-x="466.7" target-y="273.1"></path><path d="M 532.00 299.80 L 546.80 312.60 L 547.10 311.20 L 533.20 299.20 L 545.70 293.50 L 545.30 292.40 L 532.70 298.10 L 532.40 277.00 L 531.10 276.40 L 531.50 298.70 L 525.50 301.30 L 523.30 273.70 L 522.00 273.50 L 524.30 301.70 L 510.20 307.50 L 509.40 273.60 L 508.20 273.80 L 508.90 308.00 L 496.50 312.50 L 495.70 277.70 L 494.50 278.30 L 495.30 312.90 L 477.60 318.20 L 467.60 320.30 L 467.90 321.50 L 476.80 319.70 L 484.70 317.60 L 503.60 343.40 L 505.10 343.50 L 485.90 317.20 L 497.60 313.50 L 509.40 309.10 L 531.80 335.30 L 532.80 334.60 L 510.60 308.70 L 524.80 302.90 L 543.00 322.80 L 543.60 321.70 L 526.00 302.40 L 532.00 299.80 Z" fill="#dbfeed" fill-rule="nonzero" group-id="1,8" id="Path" node-id="15" stroke="none" target-height="70" target-width="79.49997" target-x="467.6" target-y="273.5"></path></g></g><g node-id="143"><path d="M 123.90 112.30 L 139.10 127.50 L 139.10 138.20 L 123.90 123.10 L 108.70 138.20 L 108.70 127.50 Z" fill="#f3f9ff" fill-rule="nonzero" group-id="2" id="Path" node-id="17" stroke="none" target-height="25.899994" target-width="30.40001" target-x="108.7" target-y="112.3"></path><path d="M 123.90 93.30 L 139.10 108.50 L 139.10 119.30 L 123.90 104.10 L 108.70 119.30 L 108.70 108.50 Z" fill="#e7f4fe" fill-rule="nonzero" group-id="2" id="Path" node-id="18" stroke="none" target-height="26" target-width="30.40001" target-x="108.7" target-y="93.3"></path><path d="M 123.90 74.30 L 139.10 89.50 L 139.10 100.30 L 123.90 85.10 L 108.70 100.30 L 108.70 89.50 Z" fill="#dceefd" fill-rule="nonzero" group-id="2" id="Path" node-id="19" stroke="none" target-height="26" target-width="30.40001" target-x="108.7" target-y="74.3"></path><path d="M 123.90 55.30 L 139.10 70.50 L 139.10 81.30 L 123.90 66.10 L 108.70 81.30 L 108.70 70.50 Z" fill="#d0e7fe" fill-rule="nonzero" group-id="2" id="Path" node-id="20" stroke="none" target-height="26.000004" target-width="30.40001" target-x="108.7" target-y="55.3"></path></g><g node-id="144"><g node-id="150"><path d="M 492.40 60.90 L 492.40 350.80 L 492.30 352.00 L 491.10 354.00 L 489.20 355.10 L 487.90 355.30 L 164.40 355.30 L 163.20 355.10 L 161.20 354.00 L 160.00 352.00 L 159.90 350.80 L 159.90 60.90 L 492.40 60.90 Z" fill="#f3f9ff" fill-rule="nonzero" group-id="3,9" id="Path" node-id="23" stroke="none" target-height="294.4" target-width="332.5" target-x="159.9" target-y="60.9"></path><path d="M 492.40 42.40 L 492.40 60.90 L 159.90 60.90 L 159.90 42.40 L 160.20 40.30 L 160.90 38.50 L 162.10 36.90 L 163.70 35.70 L 165.60 34.90 L 167.60 34.70 L 484.70 34.70 L 486.80 34.90 L 488.60 35.70 L 490.20 36.90 L 491.40 38.50 L 492.20 40.30 L 492.40 42.40 Z" fill="#224380" fill-rule="nonzero" group-id="3,9" id="Path" node-id="24" stroke="none" target-height="26.2" target-width="332.5" target-x="159.9" target-y="34.7"></path><path d="M 188.60 48.20 L 188.40 49.60 L 187.20 51.70 L 185.00 53.00 L 183.70 53.20 L 182.40 53.00 L 180.20 51.70 L 179.00 49.60 L 178.80 48.20 L 179.00 46.90 L 180.20 44.80 L 182.40 43.50 L 183.70 43.30 L 185.00 43.50 L 187.20 44.80 L 188.40 46.90 L 188.60 48.20 Z" fill="#ffcb01" fill-rule="nonzero" group-id="3,9" id="Oval" node-id="25" stroke="none" target-height="9.900002" target-width="9.800003" target-x="178.8" target-y="43.3"></path><path d="M 206.10 48.20 L 205.90 49.60 L 204.60 51.70 L 202.50 53.00 L 201.20 53.20 L 198.70 52.50 L 196.90 50.70 L 196.50 49.60 L 196.30 48.20 L 196.90 45.80 L 198.70 44.00 L 201.20 43.30 L 202.50 43.50 L 204.60 44.80 L 205.90 46.90 L 206.10 48.20 Z" fill="#44d690" fill-rule="nonzero" group-id="3,9" id="Oval" node-id="26" stroke="none" target-height="9.900002" target-width="9.800003" target-x="196.3" target-y="43.3"></path><path d="M 159.90 60.90 L 491.80 60.90 L 491.80 68.30 L 159.90 68.30 Z" fill="#dceefd" fill-rule="nonzero" group-id="3,9" id="Rectangle" node-id="27" stroke="none" target-height="7.4000015" target-width="331.9" target-x="159.9" target-y="60.9"></path></g><g node-id="151"><g node-id="164"><path d="M 463.00 233.70 L 463.00 326.20 L 462.70 328.60 L 461.80 330.70 L 460.40 332.50 L 458.50 333.90 L 456.40 334.80 L 454.00 335.20 L 346.50 335.20 L 344.10 334.80 L 342.00 333.90 L 340.20 332.50 L 338.80 330.70 L 337.90 328.60 L 337.50 326.20 L 337.50 233.70 L 337.90 231.30 L 338.80 229.20 L 340.20 227.40 L 342.00 226.00 L 344.10 225.10 L 346.50 224.70 L 454.00 224.70 L 456.40 225.10 L 458.50 226.00 L 460.40 227.40 L 461.80 229.20 L 462.70 231.30 L 463.00 233.70 Z" fill="#dae7ff" fill-rule="nonzero" group-id="3,10,23" node-id="131" stroke="none" target-height="110.500015" target-width="125.5" target-x="337.5" target-y="224.7"></path><path d="M 463.00 229.20 L 463.00 321.70 L 462.70 324.10 L 461.80 326.20 L 460.40 328.00 L 458.50 329.40 L 456.40 330.30 L 454.00 330.70 L 346.50 330.70 L 344.10 330.30 L 342.00 329.40 L 340.20 328.00 L 338.80 326.20 L 337.90 324.10 L 337.50 321.70 L 337.50 229.20 L 337.90 226.80 L 338.80 224.70 L 340.20 222.90 L 342.00 221.50 L 344.10 220.60 L 346.50 220.20 L 454.00 220.20 L 456.40 220.60 L 458.50 221.50 L 460.40 222.90 L 461.80 224.70 L 462.70 226.80 L 463.00 229.20 Z" fill="#ffffff" fill-rule="nonzero" group-id="3,10,23" node-id="133" stroke="none" target-height="110.500015" target-width="125.5" target-x="337.5" target-y="220.2"></path></g><path d="M 304.30 332.00 L 295.30 332.00 L 295.30 329.30 L 304.30 329.30 L 304.30 332.00 Z M 286.30 332.00 L 277.30 332.00 L 277.30 329.30 L 286.30 329.30 L 286.30 332.00 Z M 268.30 332.00 L 259.30 332.00 L 259.30 329.30 L 268.30 329.30 L 268.30 332.00 Z M 250.30 332.00 L 241.30 332.00 L 241.30 329.30 L 250.30 329.30 L 250.30 332.00 Z M 232.30 332.00 L 223.30 332.00 L 223.30 329.30 L 232.30 329.30 L 232.30 332.00 Z M 214.30 332.00 L 205.30 332.00 L 205.30 329.30 L 214.30 329.30 L 214.30 332.00 Z M 196.00 331.80 L 194.30 331.20 L 191.40 329.40 L 189.30 326.80 L 188.60 325.20 L 191.10 324.30 L 192.00 326.00 L 193.20 327.40 L 194.80 328.50 L 196.60 329.10 L 196.00 331.80 Z M 313.50 328.60 L 311.50 326.80 L 312.50 325.20 L 313.20 323.50 L 313.40 319.30 L 316.10 319.30 L 316.00 323.60 L 315.40 325.40 L 313.50 328.60 Z M 190.70 315.80 L 188.00 315.80 L 188.00 306.80 L 190.70 306.80 L 190.70 315.80 Z M 316.10 310.30 L 313.40 310.30 L 313.40 301.30 L 316.10 301.30 L 316.10 310.30 Z M 190.70 297.80 L 188.00 297.80 L 188.00 288.80 L 190.70 288.80 L 190.70 297.80 Z M 316.10 292.30 L 313.40 292.30 L 313.40 283.30 L 316.10 283.30 L 316.10 292.30 Z M 190.70 279.80 L 188.00 279.80 L 188.00 270.80 L 190.70 270.80 L 190.70 279.80 Z M 316.10 274.30 L 313.40 274.30 L 313.40 265.30 L 316.10 265.30 L 316.10 274.30 Z M 190.70 261.80 L 188.00 261.80 L 188.00 252.80 L 190.70 252.80 L 190.70 261.80 Z M 316.10 256.30 L 313.40 256.30 L 313.40 247.30 L 316.10 247.30 L 316.10 256.30 Z M 190.70 243.80 L 188.00 243.80 L 188.00 234.80 L 190.70 234.80 L 190.70 243.80 Z M 316.10 238.20 L 313.40 238.20 L 313.20 227.50 L 312.60 225.80 L 311.60 224.30 L 313.70 222.60 L 315.50 225.70 L 316.10 229.20 L 316.10 238.20 Z M 191.20 226.40 L 188.70 225.30 L 189.50 223.80 L 190.50 222.40 L 193.20 220.30 L 196.40 219.10 L 196.90 221.70 L 195.10 222.30 L 193.50 223.30 L 192.20 224.70 L 191.20 226.40 Z M 304.70 221.60 L 295.70 221.60 L 295.70 218.90 L 304.70 218.90 L 304.70 221.60 Z M 286.70 221.60 L 277.60 221.60 L 277.60 218.90 L 286.70 218.90 L 286.70 221.60 Z M 268.60 221.60 L 259.60 221.60 L 259.60 218.90 L 268.60 218.90 L 268.60 221.60 Z M 250.60 221.60 L 241.60 221.60 L 241.60 218.90 L 250.60 218.90 L 250.60 221.60 Z M 232.60 221.60 L 223.60 221.60 L 223.60 218.90 L 232.60 218.90 L 232.60 221.60 Z M 214.60 221.60 L 205.60 221.60 L 205.60 218.90 L 214.60 218.90 L 214.60 221.60 Z" fill="#dae7ff" fill-rule="nonzero" group-id="3,10" id="Shape" node-id="32" stroke="none" target-height="113.100006" target-width="128.1" target-x="188" target-y="218.9"></path><g node-id="165"><path d="M 314.80 97.50 L 314.80 189.90 L 314.40 192.30 L 313.50 194.50 L 312.10 196.30 L 310.30 197.70 L 308.20 198.60 L 305.80 198.90 L 198.30 198.90 L 195.90 198.60 L 193.80 197.70 L 191.90 196.30 L 190.50 194.50 L 189.60 192.30 L 189.30 189.90 L 189.30 97.50 L 189.60 95.10 L 190.50 93.00 L 191.90 91.10 L 193.80 89.70 L 195.90 88.80 L 198.30 88.50 L 305.80 88.50 L 308.20 88.80 L 310.30 89.70 L 312.10 91.10 L 313.50 93.00 L 314.40 95.10 L 314.80 97.50 Z" fill="#dae7ff" fill-rule="nonzero" group-id="3,10,24" node-id="138" stroke="none" target-height="110.399994" target-width="125.499985" target-x="189.3" target-y="88.5"></path><path d="M 314.00 193.60 L 313.10 195.10 L 310.70 197.50 L 307.60 198.80 L 305.80 198.90 L 198.30 198.90 L 195.90 198.60 L 193.80 197.70 L 191.90 196.30 L 190.50 194.50 L 189.60 192.30 L 189.30 189.90 L 189.30 97.50 L 189.50 95.70 L 190.80 92.60 L 193.10 90.20 L 194.60 89.30 L 193.80 93.00 L 193.80 188.10 L 194.00 189.80 L 194.70 191.30 L 195.60 192.60 L 196.90 193.60 L 198.40 194.20 L 200.10 194.40 L 243.10 194.40 L 244.20 198.90 L 278.70 198.90 L 271.20 194.40 L 310.30 194.40 L 312.20 194.20 L 314.00 193.60 Z" fill="#c3d3f3" fill-rule="nonzero" group-id="3,10,24" node-id="140" stroke="none" target-height="109.59999" target-width="124.7" target-x="189.3" target-y="89.3"></path></g><g node-id="166"><path d="M 463.00 102.00 L 463.00 194.40 L 462.70 196.80 L 461.80 199.00 L 460.40 200.80 L 458.50 202.20 L 456.40 203.10 L 454.00 203.40 L 346.50 203.40 L 344.10 203.10 L 342.00 202.20 L 340.20 200.80 L 338.80 199.00 L 337.90 196.80 L 337.50 194.40 L 337.50 102.00 L 337.90 99.60 L 338.80 97.50 L 340.20 95.60 L 342.00 94.20 L 344.10 93.30 L 346.50 93.00 L 454.00 93.00 L 456.40 93.30 L 458.50 94.20 L 460.40 95.60 L 461.80 97.50 L 462.70 99.60 L 463.00 102.00 Z" fill="#dae7ff" fill-rule="nonzero" group-id="3,10,25" id="Path" node-id="37" stroke="none" target-height="110.399994" target-width="125.5" target-x="337.5" target-y="93"></path><path d="M 463.00 163.80 L 337.50 163.80 L 337.50 97.50 L 337.90 95.10 L 338.80 93.00 L 340.20 91.10 L 342.00 89.70 L 344.10 88.80 L 346.50 88.50 L 454.00 88.50 L 456.40 88.80 L 458.50 89.70 L 460.40 91.10 L 461.80 93.00 L 462.70 95.10 L 463.00 97.50 L 463.00 163.80 Z" fill="#ffffff" fill-rule="nonzero" group-id="3,10,25" id="Path" node-id="38" stroke="none" target-height="75.3" target-width="125.5" target-x="337.5" target-y="88.5"></path><path d="M 355.80 148.70 L 354.60 148.00 L 354.90 146.60 L 357.60 145.90 L 359.20 145.10 L 360.60 143.80 L 362.00 142.00 L 366.70 134.70 L 370.90 129.30 L 375.30 125.90 L 377.90 124.70 L 380.90 124.00 L 384.60 123.60 L 388.10 123.90 L 390.90 124.40 L 395.90 126.30 L 404.40 131.10 L 406.70 132.10 L 412.30 133.50 L 416.00 133.70 L 421.10 133.40 L 425.20 132.70 L 428.30 131.80 L 431.30 130.30 L 433.60 128.70 L 435.40 126.90 L 438.10 122.60 L 439.90 116.80 L 441.70 108.60 L 442.60 106.50 L 443.70 105.00 L 444.60 104.20 L 447.30 103.60 L 448.50 104.30 L 448.50 105.30 L 447.80 106.00 L 446.30 106.30 L 445.40 106.80 L 444.80 107.90 L 441.40 121.10 L 439.20 126.00 L 437.50 128.30 L 435.50 130.40 L 432.90 132.30 L 429.60 133.90 L 426.10 135.10 L 421.60 135.90 L 416.00 136.20 L 411.90 136.00 L 405.70 134.50 L 403.20 133.40 L 394.70 128.50 L 390.30 126.80 L 384.60 126.20 L 381.40 126.40 L 378.80 127.10 L 376.50 128.20 L 374.50 129.60 L 371.00 133.10 L 363.90 143.80 L 362.20 145.80 L 359.00 148.10 L 355.80 148.70 Z" fill="#dceefd" fill-rule="nonzero" group-id="3,10,25" id="Path" node-id="39" stroke="none" target-height="45.1" target-width="93.899994" target-x="354.6" target-y="103.6"></path><path d="M 355.80 148.70 L 354.60 148.00 L 354.90 146.60 L 358.10 145.60 L 360.50 143.20 L 369.70 127.10 L 373.50 122.80 L 377.30 120.20 L 381.80 118.80 L 384.60 118.60 L 388.10 118.90 L 391.00 119.80 L 393.70 121.00 L 396.10 122.60 L 404.50 129.90 L 406.80 131.40 L 409.50 132.60 L 412.40 133.40 L 416.00 133.70 L 420.90 132.90 L 423.00 132.10 L 425.80 130.20 L 428.30 127.90 L 430.40 125.10 L 432.40 122.10 L 439.10 109.70 L 440.90 107.10 L 442.80 105.30 L 444.20 104.30 L 447.30 103.60 L 448.50 104.30 L 448.50 105.30 L 447.80 106.00 L 445.10 106.70 L 442.60 109.20 L 434.60 123.50 L 432.40 126.80 L 428.20 131.60 L 424.00 134.40 L 421.60 135.30 L 419.00 136.00 L 416.00 136.20 L 410.70 135.60 L 405.50 133.50 L 403.00 131.80 L 394.60 124.70 L 392.50 123.30 L 390.20 122.10 L 387.60 121.40 L 384.60 121.10 L 381.50 121.50 L 378.90 122.30 L 376.60 123.60 L 374.60 125.30 L 371.10 129.60 L 363.90 142.80 L 362.20 145.20 L 360.40 147.00 L 359.00 148.00 L 355.80 148.70 Z" fill="#7266d5" fill-rule="nonzero" group-id="3,10,25" id="Path" node-id="40" stroke="none" target-height="45.1" target-width="93.899994" target-x="354.6" target-y="103.6"></path><path d="M 358.40 147.50 L 357.70 149.30 L 355.80 150.00 L 354.80 149.80 L 353.40 148.40 L 353.40 146.50 L 354.00 145.70 L 355.80 145.00 L 357.70 145.70 L 358.40 147.50 Z" fill="#2ccd7f" fill-rule="nonzero" group-id="3,10,25" id="Oval" node-id="41" stroke="none" target-height="5" target-width="5" target-x="353.4" target-y="145"></path><path d="M 418.60 134.90 L 417.80 136.70 L 416.00 137.40 L 414.90 137.20 L 413.50 135.90 L 413.30 134.90 L 413.50 134.00 L 414.90 132.60 L 416.00 132.40 L 417.80 133.20 L 418.60 134.90 Z" fill="#2ccd7f" fill-rule="nonzero" group-id="3,10,25" id="Oval" node-id="42" stroke="none" target-height="5" target-width="5.3000183" target-x="413.3" target-y="132.4"></path><path d="M 452.50 104.80 L 452.30 106.20 L 451.00 108.40 L 448.70 109.60 L 447.30 109.80 L 444.70 109.20 L 442.80 107.30 L 442.30 106.20 L 442.10 104.80 L 442.80 102.30 L 444.70 100.50 L 447.30 99.80 L 448.70 100.00 L 451.00 101.30 L 452.30 103.50 L 452.50 104.80 Z" fill="#d0f4e3" fill-rule="nonzero" group-id="3,10,25" id="Oval" node-id="43" stroke="none" target-height="10" target-width="10.399994" target-x="442.1" target-y="99.8"></path><path d="M 451.20 104.80 L 450.90 106.30 L 450.10 107.50 L 448.90 108.30 L 447.30 108.60 L 445.80 108.30 L 444.50 107.50 L 443.70 106.30 L 443.40 104.80 L 443.70 103.30 L 444.50 102.20 L 445.80 101.40 L 447.30 101.10 L 448.90 101.40 L 450.10 102.20 L 450.90 103.30 L 451.20 104.80 Z" fill="#99e9c2" fill-rule="nonzero" group-id="3,10,25" id="Oval" node-id="44" stroke="none" target-height="7.5" target-width="7.8000183" target-x="443.4" target-y="101.1"></path><path d="M 449.90 104.80 L 449.20 106.60 L 447.30 107.30 L 446.30 107.10 L 444.90 105.80 L 444.70 104.80 L 444.90 103.80 L 446.30 102.50 L 447.30 102.30 L 449.20 103.00 L 449.70 103.80 L 449.90 104.80 Z" fill="#2ccd7f" fill-rule="nonzero" group-id="3,10,25" id="Oval" node-id="45" stroke="none" target-height="5" target-width="5.1999817" target-x="444.7" target-y="102.3"></path><path d="M 454.00 198.90 L 346.50 198.90 L 344.10 198.60 L 342.00 197.70 L 340.20 196.30 L 338.80 194.50 L 337.90 192.30 L 337.50 189.90 L 337.50 163.80 L 463.00 163.80 L 463.00 189.90 L 462.70 192.30 L 461.80 194.50 L 460.40 196.30 L 458.50 197.70 L 456.40 198.60 L 454.00 198.90 Z" fill="#7266d5" fill-rule="nonzero" group-id="3,10,25" id="Path" node-id="46" stroke="none" target-height="35.09999" target-width="125.5" target-x="337.5" target-y="163.8"></path><path d="M 363.20 178.90 L 348.40 178.90 L 348.00 178.40 L 348.10 174.00 L 363.20 173.80 L 363.70 174.30 L 363.70 178.40 L 363.20 178.90 Z" fill="#ffffff" fill-rule="nonzero" group-id="3,10,25" id="Path" node-id="47" stroke="none" target-height="5.099991" target-width="15.700012" target-x="348" target-y="173.8"></path><path d="M 378.90 188.90 L 348.40 188.90 L 348.00 188.40 L 348.10 184.00 L 378.90 183.90 L 379.40 184.30 L 379.40 188.40 L 378.90 188.90 Z" fill="#ffffff" fill-rule="nonzero" group-id="3,10,25" id="Path" node-id="48" stroke="none" target-height="5" target-width="31.399994" target-x="348" target-y="183.9"></path></g></g></g><g node-id="145"><path d="M 110.30 209.90 L 111.70 208.00 L 113.30 203.20 L 114.10 201.70 L 115.10 200.30 L 116.10 199.60 L 117.60 199.20 L 120.90 199.30 L 123.80 200.00 L 124.90 200.70 L 123.90 201.40 L 120.80 201.70 L 118.80 202.70 L 117.90 203.80 L 117.80 204.50 L 117.90 205.20 L 118.60 205.80 L 121.50 203.00 L 122.00 202.90 L 122.20 203.30 L 122.10 205.70 L 121.60 207.20 L 120.80 208.60 L 119.80 209.60 L 114.90 212.90 L 112.20 215.50 L 111.10 214.80 L 110.20 212.70 L 110.00 210.60 L 110.30 209.90 Z" fill="#f1b282" fill-rule="nonzero" group-id="4" id="Path" node-id="50" stroke="none" target-height="16.300003" target-width="14.900002" target-x="110" target-y="199.2"></path><path d="M 109.00 208.60 L 109.60 208.40 L 110.10 208.70 L 115.00 215.20 L 115.20 215.80 L 114.90 216.40 L 110.90 219.60 L 97.80 229.10 L 91.50 233.00 L 88.90 234.10 L 87.40 234.30 L 84.30 222.60 L 97.60 215.60 L 109.00 208.60 Z" fill="#f0b701" fill-rule="nonzero" group-id="4" id="Path" node-id="51" stroke="none" target-height="25.90001" target-width="30.899994" target-x="84.3" target-y="208.4"></path><path d="M 225.00 144.40 L 228.50 145.40 L 232.00 148.00 L 237.00 153.70 L 240.20 159.70 L 241.80 161.90 L 244.70 165.10 L 244.90 166.10 L 244.20 166.60 L 242.90 166.90 L 239.70 167.10 L 235.20 166.80 L 230.50 160.80 L 229.70 160.30 L 227.60 160.50 L 224.40 161.90 L 223.20 161.70 L 220.90 159.90 L 218.90 156.80 L 217.70 156.90 L 217.30 156.60 L 216.90 154.20 L 217.00 152.40 L 215.90 149.20 L 216.10 147.60 L 216.90 146.30 L 218.30 145.30 L 220.00 144.70 L 222.10 144.40 L 225.00 144.40 Z" fill="#f1b282" fill-rule="nonzero" group-id="4" id="Path" node-id="52" stroke="none" target-height="22.700012" target-width="29" target-x="215.9" target-y="144.4"></path><path d="M 241.80 184.60 L 226.30 196.30 L 214.80 204.40 L 212.80 206.30 L 212.50 207.00 L 212.50 211.10 L 212.20 212.40 L 211.60 213.40 L 209.50 214.30 L 206.60 214.70 L 204.00 213.90 L 203.20 213.10 L 202.80 211.70 L 202.90 207.10 L 203.30 205.70 L 204.20 204.40 L 217.80 193.40 L 221.60 189.90 L 231.90 179.50 L 236.00 180.00 L 237.70 180.60 L 239.30 181.50 L 240.70 182.80 L 241.80 184.60 Z" fill="#e0a277" fill-rule="nonzero" group-id="4" id="Path" node-id="53" stroke="none" target-height="35.199997" target-width="39" target-x="202.8" target-y="179.5"></path><path d="M 237.50 156.50 L 236.80 156.10 L 235.30 153.10 L 234.50 152.40 L 233.10 152.10 L 232.00 152.20 L 230.50 153.20 L 228.70 153.20 L 227.80 152.80 L 225.50 150.10 L 224.40 149.30 L 222.70 148.60 L 220.70 148.40 L 216.00 148.70 L 214.40 147.90 L 213.70 146.60 L 213.40 145.00 L 214.20 141.50 L 216.60 138.40 L 220.20 135.90 L 224.40 134.40 L 228.80 134.20 L 230.90 134.60 L 232.80 135.30 L 234.40 136.50 L 235.80 138.10 L 237.40 141.10 L 238.40 144.30 L 239.00 147.50 L 239.00 153.00 L 238.70 154.80 L 238.00 156.20 L 237.50 156.50 Z" fill="#102b5e" fill-rule="nonzero" group-id="4" id="Path" node-id="54" stroke="none" target-height="22.300003" target-width="25.600006" target-x="213.4" target-y="134.2"></path><path d="M 271.20 194.40 L 243.10 194.40 L 241.60 191.30 L 240.60 190.10 L 239.50 189.40 L 233.80 187.10 L 231.60 185.90 L 229.80 183.50 L 228.80 180.70 L 228.50 178.30 L 228.50 173.70 L 229.00 171.40 L 230.50 167.50 L 233.10 164.00 L 236.40 161.60 L 238.50 160.60 L 240.60 160.20 L 243.90 160.40 L 246.20 161.10 L 248.60 162.30 L 250.90 163.80 L 255.00 168.00 L 258.60 173.20 L 260.10 176.10 L 263.50 185.70 L 264.70 188.00 L 266.10 189.90 L 268.60 192.50 L 271.20 194.40 Z" fill="#2ccd7f" fill-rule="nonzero" group-id="4" id="Path" node-id="55" stroke="none" target-height="34.199997" target-width="42.700012" target-x="228.5" target-y="160.2"></path><path d="M 234.90 134.40 L 235.20 132.50 L 236.90 130.20 L 238.50 129.10 L 240.50 128.50 L 243.60 128.20 L 247.20 128.40 L 249.80 129.10 L 251.70 130.00 L 253.40 131.30 L 254.60 132.90 L 255.30 134.70 L 255.90 137.70 L 256.00 141.00 L 254.90 151.10 L 255.10 157.00 L 256.40 160.60 L 258.70 163.40 L 259.50 165.20 L 258.80 166.10 L 256.00 166.40 L 250.90 165.20 L 248.10 163.90 L 245.60 162.20 L 243.50 159.90 L 242.40 158.20 L 241.50 156.10 L 240.10 145.40 L 239.20 140.70 L 238.50 138.60 L 237.80 137.60 L 237.20 137.20 L 235.30 137.50 L 234.90 137.00 L 234.90 134.40 Z" fill="#102b5e" fill-rule="nonzero" group-id="4" id="Path" node-id="56" stroke="none" target-height="38.199997" target-width="24.600006" target-x="234.9" target-y="128.2"></path><path d="M 231.00 132.10 L 230.40 133.30 L 230.50 134.50 L 232.20 138.30 L 235.00 141.70 L 236.10 142.40 L 237.90 142.50 L 238.60 142.00 L 238.90 141.30 L 238.80 140.10 L 238.20 138.30 L 237.10 136.20 L 234.00 132.90 L 232.80 132.20 L 231.00 132.10 Z" fill="#2ccd7f" fill-rule="nonzero" group-id="4" id="Path" node-id="57" stroke="none" target-height="10.399994" target-width="8.5" target-x="230.4" target-y="132.1"></path><path d="M 212.20 231.20 L 105.90 247.30 L 103.50 247.30 L 101.20 246.70 L 99.20 245.60 L 97.60 244.00 L 96.40 242.00 L 95.70 239.70 L 81.90 148.30 L 81.80 145.90 L 82.40 143.60 L 83.50 141.60 L 85.10 140.00 L 87.10 138.70 L 89.40 138.10 L 195.70 122.00 L 198.10 122.00 L 200.40 122.50 L 202.40 123.70 L 204.00 125.30 L 205.20 127.20 L 205.90 129.60 L 219.70 221.00 L 219.80 223.40 L 219.20 225.60 L 218.10 227.60 L 216.50 229.30 L 214.50 230.50 L 212.20 231.20 Z" fill="#1b90fb" fill-rule="nonzero" group-id="4" id="Path" node-id="58" stroke="none" target-height="125.3" target-width="138" target-x="81.8" target-y="122"></path><g node-id="152"><path d="M 136.40 159.90 L 145.10 158.60 L 146.90 170.30 L 138.20 171.60 Z" fill="#9fd1fd" fill-rule="nonzero" group-id="4,11" id="Rectangle" node-id="59" stroke="none" target-height="13" target-width="10.5" target-x="136.4" target-y="158.6"></path></g><g node-id="153"><path d="M 138.20 171.60 L 146.90 170.30 L 153.10 211.20 L 144.40 212.50 Z" fill="#1277d7" fill-rule="nonzero" group-id="4,12" id="Rectangle" node-id="60" stroke="none" target-height="42.199997" target-width="14.900009" target-x="138.2" target-y="170.3"></path></g><g node-id="154"><path d="M 123.40 161.90 L 132.10 160.60 L 135.60 183.90 L 126.90 185.30 Z" fill="#9fd1fd" fill-rule="nonzero" group-id="4,13" id="Rectangle" node-id="61" stroke="none" target-height="24.699997" target-width="12.200005" target-x="123.4" target-y="160.6"></path></g><g node-id="155"><path d="M 126.90 185.30 L 135.60 183.90 L 140.00 213.10 L 131.30 214.40 Z" fill="#1277d7" fill-rule="nonzero" group-id="4,14" id="Rectangle" node-id="62" stroke="none" target-height="30.5" target-width="13.099998" target-x="126.9" target-y="183.9"></path></g><g node-id="156"><path d="M 110.40 163.90 L 119.10 162.60 L 124.40 197.60 L 115.70 198.90 Z" fill="#9fd1fd" fill-rule="nonzero" group-id="4,15" id="Rectangle" node-id="63" stroke="none" target-height="36.299988" target-width="14" target-x="110.4" target-y="162.6"></path></g><g node-id="157"><path d="M 115.70 198.90 L 124.40 197.60 L 127.00 215.10 L 118.30 216.40 Z" fill="#1277d7" fill-rule="nonzero" group-id="4,16" id="Rectangle" node-id="64" stroke="none" target-height="18.799988" target-width="11.300003" target-x="115.7" target-y="197.6"></path></g><g node-id="158"><path d="M 174.60 154.20 L 183.30 152.90 L 191.20 205.40 L 182.50 206.70 Z" fill="#ffffff" fill-rule="nonzero" group-id="4,17" id="Rectangle" node-id="65" stroke="none" target-height="53.800003" target-width="16.59999" target-x="174.6" target-y="152.9"></path></g><g node-id="159"><path d="M 174.60 154.20 L 183.30 152.90 L 191.20 205.40 L 182.50 206.70 Z" fill="#9fd1fd" fill-rule="nonzero" group-id="4,18" id="Rectangle" node-id="66" stroke="none" target-height="53.800003" target-width="16.59999" target-x="174.6" target-y="152.9"></path></g><g node-id="160"><path d="M 161.60 156.20 L 170.30 154.80 L 171.00 159.60 L 162.30 160.90 Z" fill="#9fd1fd" fill-rule="nonzero" group-id="4,19" id="Rectangle" node-id="67" stroke="none" target-height="6.099991" target-width="9.399994" target-x="161.6" target-y="154.8"></path></g><g node-id="161"><path d="M 162.30 160.90 L 171.00 159.60 L 178.20 207.40 L 169.50 208.70 Z" fill="#1277d7" fill-rule="nonzero" group-id="4,20" id="Rectangle" node-id="68" stroke="none" target-height="49.09999" target-width="15.899994" target-x="162.3" target-y="159.6"></path></g><g node-id="162"><path d="M 148.50 158.10 L 157.20 156.80 L 158.70 166.30 L 150.00 167.60 Z" fill="#9fd1fd" fill-rule="nonzero" group-id="4,21" id="Rectangle" node-id="69" stroke="none" target-height="10.800003" target-width="10.199997" target-x="148.5" target-y="156.8"></path></g><g node-id="163"><path d="M 150.00 167.60 L 158.70 166.30 L 165.20 209.30 L 156.50 210.60 Z" fill="#1277d7" fill-rule="nonzero" group-id="4,22" id="Rectangle" node-id="70" stroke="none" target-height="44.300003" target-width="15.199997" target-x="150" target-y="166.3"></path></g><path d="M 97.10 354.10 L 98.40 360.50 L 98.00 361.20 L 97.20 361.70 L 95.30 362.10 L 93.30 362.10 L 91.20 361.30 L 90.50 360.40 L 89.20 353.90 L 97.10 354.10 Z" fill="#f1b282" fill-rule="nonzero" group-id="4" id="Path" node-id="71" stroke="none" target-height="8.200012" target-width="9.200005" target-x="89.2" target-y="353.9"></path><path d="M 98.10 357.80 L 99.00 357.30 L 99.90 357.50 L 106.40 361.40 L 113.00 363.80 L 114.40 365.10 L 114.60 365.80 L 114.20 366.30 L 112.70 366.90 L 108.10 367.40 L 95.70 367.40 L 89.90 367.00 L 88.70 365.70 L 88.50 364.80 L 88.50 359.20 L 89.10 358.80 L 91.50 359.80 L 93.80 360.30 L 95.00 360.10 L 96.20 359.50 L 98.10 357.80 Z" fill="#102b5e" fill-rule="nonzero" group-id="4" id="Path" node-id="72" stroke="none" target-height="10.100006" target-width="26.099998" target-x="88.5" target-y="357.3"></path><path d="M 50.60 332.20 L 46.80 335.80 L 45.60 336.50 L 44.70 336.40 L 43.80 335.90 L 42.50 334.50 L 41.40 332.70 L 41.10 331.70 L 41.40 330.20 L 46.80 325.40 L 50.60 332.20 Z" fill="#f1b282" fill-rule="nonzero" group-id="4" id="Path" node-id="73" stroke="none" target-height="11.100006" target-width="9.5" target-x="41.1" target-y="325.4"></path><path d="M 47.60 335.40 L 48.40 335.90 L 48.70 336.80 L 48.70 344.30 L 50.00 351.30 L 49.70 353.20 L 49.20 353.70 L 48.50 353.60 L 47.30 352.60 L 44.50 348.90 L 38.10 338.30 L 35.50 333.10 L 35.90 331.40 L 36.60 330.70 L 41.40 327.90 L 42.10 328.20 L 42.40 330.80 L 43.20 333.00 L 44.00 333.90 L 45.20 334.70 L 47.60 335.40 Z" fill="#102b5e" fill-rule="nonzero" group-id="4" id="Path" node-id="74" stroke="none" target-height="25.800018" target-width="14.5" target-x="35.5" target-y="327.9"></path><path d="M 88.90 273.00 L 94.90 286.30 L 98.60 296.70 L 99.30 300.80 L 98.10 303.90 L 96.60 305.90 L 91.80 310.80 L 88.40 313.70 L 76.70 321.80 L 63.70 329.00 L 57.20 332.00 L 51.60 334.10 L 50.50 334.10 L 49.60 333.40 L 45.50 325.50 L 45.80 324.30 L 46.20 323.80 L 79.30 296.40 L 71.40 273.00 L 88.90 273.00 Z" fill="#0b224e" fill-rule="nonzero" group-id="4" id="Path" node-id="75" stroke="none" target-height="61.100006" target-width="53.800003" target-x="45.5" target-y="273"></path><path d="M 62.50 268.40 L 62.70 271.90 L 64.60 280.90 L 72.30 305.80 L 75.60 320.80 L 78.90 330.70 L 88.30 356.00 L 89.00 356.90 L 90.10 357.10 L 97.30 355.60 L 98.50 354.70 L 98.70 353.20 L 93.70 331.30 L 90.70 316.50 L 90.00 288.30 L 88.90 278.50 L 88.10 274.60 L 87.10 272.30 L 85.80 270.60 L 84.10 269.20 L 80.00 267.50 L 74.00 266.90 L 70.50 267.00 L 62.50 268.40 Z" fill="#224380" fill-rule="nonzero" group-id="4" id="Path" node-id="76" stroke="none" target-height="90.20001" target-width="36.199997" target-x="62.5" target-y="266.9"></path><path d="M 107.70 246.70 L 113.40 242.10 L 118.40 239.90 L 119.90 239.50 L 120.40 239.70 L 120.30 240.00 L 115.80 244.20 L 118.10 244.60 L 119.10 244.40 L 123.30 242.50 L 124.80 242.30 L 124.10 243.60 L 122.10 246.00 L 118.00 249.40 L 108.00 252.20 L 107.70 246.70 Z" fill="#f1b282" fill-rule="nonzero" group-id="4" id="Path" node-id="77" stroke="none" target-height="12.699997" target-width="17.100006" target-x="107.7" target-y="239.5"></path><path d="M 93.50 200.70 L 93.90 202.80 L 93.50 205.30 L 94.50 209.40 L 92.30 211.40 L 91.60 214.30 L 90.80 215.20 L 90.00 215.60 L 86.60 215.90 L 85.70 216.20 L 85.50 216.60 L 86.90 222.70 L 75.40 221.00 L 77.40 213.40 L 77.50 208.60 L 78.00 204.20 L 78.50 202.00 L 79.90 199.20 L 81.40 198.20 L 86.00 198.00 L 88.50 198.20 L 92.10 199.30 L 93.50 200.70 Z" fill="#f1b282" fill-rule="nonzero" group-id="4" id="Path" node-id="78" stroke="none" target-height="24.699997" target-width="19.099998" target-x="75.4" target-y="198"></path><path d="M 83.90 192.80 L 90.20 193.00 L 91.40 192.60 L 92.10 192.00 L 92.40 191.20 L 94.30 192.30 L 95.20 193.40 L 96.50 196.50 L 96.20 199.70 L 95.10 201.70 L 93.80 202.60 L 92.30 203.20 L 86.40 204.30 L 85.50 205.00 L 85.10 206.10 L 85.80 210.60 L 86.80 212.80 L 87.50 213.00 L 88.50 212.80 L 92.30 211.30 L 93.20 212.80 L 93.70 216.00 L 93.50 217.70 L 92.80 219.00 L 92.00 219.70 L 90.90 220.10 L 89.20 220.10 L 86.90 219.20 L 85.10 216.70 L 82.90 208.60 L 82.40 207.10 L 81.20 205.70 L 80.50 205.40 L 79.90 205.70 L 79.40 206.70 L 78.10 212.80 L 77.20 214.00 L 76.60 214.10 L 75.20 213.70 L 73.90 212.60 L 72.90 211.00 L 72.10 208.70 L 71.70 206.10 L 71.80 202.60 L 72.30 200.10 L 73.10 198.10 L 74.20 196.50 L 75.60 195.10 L 78.80 193.40 L 81.40 192.80 L 83.90 192.80 Z" fill="#0b224e" fill-rule="nonzero" group-id="4" id="Path" node-id="79" stroke="none" target-height="28.90001" target-width="24.800003" target-x="71.7" target-y="191.2"></path><path d="M 71.20 274.90 L 63.40 273.90 L 62.10 273.20 L 60.90 272.10 L 60.10 270.60 L 59.40 268.10 L 59.10 265.30 L 59.30 262.40 L 60.90 256.40 L 63.80 247.40 L 65.40 238.40 L 66.60 233.30 L 68.00 229.10 L 69.70 225.10 L 72.90 220.00 L 75.90 217.10 L 77.70 216.80 L 82.20 218.80 L 86.70 221.90 L 87.90 223.40 L 88.80 225.20 L 89.80 228.40 L 90.80 234.30 L 90.80 238.60 L 88.70 255.30 L 91.60 273.70 L 91.00 274.30 L 89.80 274.80 L 84.30 275.60 L 77.40 275.50 L 71.20 274.90 Z" fill="#ffcb01" fill-rule="nonzero" group-id="4" id="Path" node-id="80" stroke="none" target-height="58.800003" target-width="32.5" target-x="59.1" target-y="216.8"></path><path d="M 90.20 265.30 L 85.10 263.90 L 76.60 260.50 L 72.30 257.50 L 71.00 255.90 L 70.50 254.50 L 70.30 251.20 L 71.40 245.60 L 73.40 240.20 L 76.20 234.50 L 75.10 243.40 L 75.20 247.70 L 75.80 251.50 L 76.50 253.90 L 78.70 257.50 L 80.20 258.80 L 82.10 259.60 L 84.30 260.10 L 89.20 260.00 L 90.20 265.30 Z" fill="#f0b701" fill-rule="nonzero" group-id="4" id="Path" node-id="81" stroke="none" target-height="30.799988" target-width="19.899994" target-x="70.3" target-y="234.5"></path><path d="M 111.90 254.90 L 102.70 257.80 L 94.50 259.60 L 86.20 260.20 L 81.60 259.60 L 79.90 258.90 L 78.40 257.80 L 77.30 256.30 L 76.40 254.60 L 75.40 251.60 L 74.80 244.90 L 75.80 234.50 L 86.90 236.40 L 86.60 247.30 L 94.10 246.90 L 106.50 245.50 L 107.40 246.30 L 109.40 249.60 L 111.30 253.10 L 111.90 254.90 Z" fill="#ffcb01" fill-rule="nonzero" group-id="4" id="Path" node-id="82" stroke="none" target-height="25.700012" target-width="37.1" target-x="74.8" target-y="234.5"></path><path d="M 278.70 198.90 L 244.20 198.90 L 243.10 194.40 L 271.20 194.40 L 278.70 198.90 Z" fill="#1eaf69" fill-rule="nonzero" group-id="4" id="Path" node-id="83" stroke="none" target-height="4.5" target-width="35.600006" target-x="243.1" target-y="194.4"></path><path d="M 228.80 180.70 L 229.90 183.80 L 231.60 185.90 L 233.30 186.90 L 239.50 189.40 L 240.70 187.80 L 242.10 183.30 L 242.50 175.20 L 239.20 174.50 L 237.50 174.70 L 235.10 175.50 L 232.80 177.00 L 228.80 180.70 Z" fill="#1eaf69" fill-rule="nonzero" group-id="4" id="Path" node-id="84" stroke="none" target-height="14.899994" target-width="13.699997" target-x="228.8" target-y="174.5"></path><path d="M 237.10 183.80 L 220.20 193.40 L 207.80 199.90 L 205.50 201.60 L 205.10 202.20 L 203.40 207.20 L 201.70 209.70 L 199.40 210.10 L 196.50 209.60 L 195.20 209.00 L 194.10 207.60 L 194.60 206.00 L 196.60 202.80 L 196.50 202.40 L 196.00 202.40 L 193.50 203.50 L 193.40 202.50 L 194.90 200.20 L 197.50 198.30 L 200.90 196.50 L 212.20 189.40 L 216.40 186.40 L 227.90 177.40 L 232.00 178.40 L 233.50 179.20 L 235.10 180.40 L 236.30 181.80 L 237.10 183.80 Z" fill="#f1b282" fill-rule="nonzero" group-id="4" id="Path" node-id="85" stroke="none" target-height="32.700012" target-width="43.700012" target-x="193.4" target-y="177.4"></path><path d="M 235.40 165.10 L 233.00 166.00 L 231.90 167.00 L 230.50 168.90 L 225.70 177.50 L 224.50 179.10 L 225.00 180.80 L 226.00 182.30 L 229.30 185.50 L 232.40 187.50 L 233.00 187.60 L 234.60 186.60 L 238.60 182.90 L 242.10 178.20 L 243.00 175.90 L 242.90 172.70 L 242.40 171.00 L 241.00 168.70 L 239.30 166.80 L 237.90 165.80 L 235.40 165.10 Z" fill="#2ccd7f" fill-rule="nonzero" group-id="4" id="Path" node-id="86" stroke="none" target-height="22.5" target-width="18.5" target-x="224.5" target-y="165.1"></path></g><g node-id="146"><path d="M 206.10 337.00 L 151.80 337.00 L 152.10 341.60 L 153.60 348.40 L 156.20 354.80 L 159.60 359.60 L 161.80 361.70 L 164.30 363.60 L 167.30 365.30 L 170.60 366.40 L 174.40 367.20 L 178.90 367.50 L 183.50 367.20 L 187.30 366.40 L 190.50 365.30 L 193.60 363.60 L 196.10 361.70 L 198.30 359.60 L 201.60 354.80 L 204.30 348.40 L 205.70 341.60 L 206.10 337.00 Z" fill="#c3d3f3" fill-rule="nonzero" group-id="5" id="Path" node-id="88" stroke="none" target-height="30.5" target-width="54.300003" target-x="151.8" target-y="337"></path><path d="M 206.10 337.00 L 205.20 339.10 L 204.10 340.20 L 199.90 342.50 L 196.70 343.60 L 188.50 345.20 L 178.90 345.70 L 169.30 345.20 L 161.20 343.60 L 155.50 341.40 L 153.80 340.20 L 152.00 338.10 L 151.80 337.00 L 152.60 334.80 L 155.50 332.60 L 158.00 331.50 L 161.20 330.40 L 169.30 328.80 L 178.90 328.30 L 188.50 328.80 L 196.70 330.40 L 199.90 331.50 L 204.10 333.70 L 205.20 334.80 L 206.10 337.00 Z" fill="#dae7ff" fill-rule="nonzero" group-id="5" id="Oval" node-id="89" stroke="none" target-height="17.400024" target-width="54.300003" target-x="151.8" target-y="328.3"></path><path d="M 178.90 340.10 L 173.90 330.30 L 171.80 325.50 L 167.60 313.40 L 165.10 301.90 L 164.30 292.20 L 164.40 287.30 L 165.00 282.40 L 166.00 277.60 L 168.90 284.00 L 172.90 295.00 L 175.00 302.50 L 176.70 310.40 L 178.10 319.70 L 179.00 332.90 L 178.90 340.10 Z" fill="#2ccd7f" fill-rule="nonzero" group-id="5" id="Path" node-id="90" stroke="none" target-height="62.5" target-width="14.699997" target-x="164.3" target-y="277.6"></path><path d="M 178.90 340.10 L 180.20 329.20 L 181.20 324.00 L 184.50 311.70 L 188.80 300.70 L 193.60 292.20 L 196.40 288.20 L 199.60 284.50 L 203.20 281.00 L 202.10 288.00 L 199.20 299.40 L 196.70 306.70 L 193.70 314.30 L 189.70 322.80 L 183.10 334.20 L 178.90 340.10 Z" fill="#2ccd7f" fill-rule="nonzero" group-id="5" id="Path" node-id="91" stroke="none" target-height="59.100006" target-width="24.300003" target-x="178.9" target-y="281"></path><path d="M 178.90 343.90 L 177.20 332.90 L 176.70 327.70 L 176.40 315.00 L 177.60 303.20 L 179.80 293.70 L 181.40 289.10 L 183.50 284.70 L 185.90 280.40 L 186.80 287.30 L 187.20 299.10 L 186.80 306.80 L 186.00 314.90 L 184.50 324.20 L 181.30 337.00 L 178.90 343.90 Z" fill="#1eaf69" fill-rule="nonzero" group-id="5" id="Path" node-id="92" stroke="none" target-height="63.5" target-width="10.800003" target-x="176.4" target-y="280.4"></path></g></svg>
